<?xml version="1.0" encoding="UTF-8" standalone="no"?>
<!-- Created with Inkscape (http://www.inkscape.org/) -->

<svg
   xmlns:dc="http://purl.org/dc/elements/1.1/"
   xmlns:cc="http://creativecommons.org/ns#"
   xmlns:rdf="http://www.w3.org/1999/02/22-rdf-syntax-ns#"
   xmlns:svg="http://www.w3.org/2000/svg"
   xmlns="http://www.w3.org/2000/svg"
   xmlns:sodipodi="http://sodipodi.sourceforge.net/DTD/sodipodi-0.dtd"
   xmlns:inkscape="http://www.inkscape.org/namespaces/inkscape"
   width="169.33333mm"
   height="508.50497mm"
   viewBox="0 0 599.99998 1801.7893"
   id="svg5444"
   version="1.1"
   inkscape:version="0.91 r13725"
   sodipodi:docname="Bird3.svg">
  <defs
     id="defs5446" />
  <sodipodi:namedview
     id="base"
     pagecolor="#ffffff"
     bordercolor="#666666"
     borderopacity="1.0"
     inkscape:pageopacity="0.0"
     inkscape:pageshadow="2"
     inkscape:zoom="0.35"
     inkscape:cx="376.87176"
     inkscape:cy="945.71463"
     inkscape:document-units="px"
     inkscape:current-layer="layer1"
     showgrid="false"
     fit-margin-top="0"
     fit-margin-left="0"
     fit-margin-right="0"
     fit-margin-bottom="0"
     inkscape:window-width="1600"
     inkscape:window-height="837"
     inkscape:window-x="-8"
     inkscape:window-y="-8"
     inkscape:window-maximized="1" />
  <metadata
     id="metadata5449">
    <rdf:RDF>
      <cc:Work
         rdf:about="">
        <dc:format>image/svg+xml</dc:format>
        <dc:type
           rdf:resource="http://purl.org/dc/dcmitype/StillImage" />
        <dc:title></dc:title>
      </cc:Work>
    </rdf:RDF>
  </metadata>
  <g
     inkscape:label="Layer 1"
     inkscape:groupmode="layer"
     id="layer1"
     transform="translate(1.8717636,323.71243)">
    <g
       transform="matrix(9.0089195,0,0,9.0089195,-7517.8336,-2125.4881)"
       id="g4829">
      <path
         d="m 843.69223,212.1937 c 0.38798,-0.94678 2.75528,-3.21976 3.10063,-3.3149 0.12897,-6.96225 2.97059,-6.06128 2.97059,-6.06128 4.08975,-0.71067 7.79259,-0.4264 7.57729,5.9673 -0.77489,3.55101 -0.25795,5.16148 1.98039,7.24533 17.69456,12.21889 19.54598,18.37648 20.66515,19.60753 -13.00152,3.93043 -26.00411,4.87839 -33.32239,-10.51443 -1.46451,-5.16148 1.63505,-11.55637 1.63505,-11.55637 0.13003,-0.42523 0.17267,-1.51532 0.17267,-1.51532 -1.37818,0.42641 -4.77938,0.14214 -4.77938,0.14214 z"
         id="path3451"
         style="fill:#d21034"
         inkscape:connector-curvature="0" />
      <path
         d="m 843.69223,212.1937 c 0.38798,-0.94678 2.75528,-3.21976 3.10063,-3.3149 0.12897,-6.96225 2.97059,-6.06128 2.97059,-6.06128 4.08975,-0.71067 7.79259,-0.4264 7.57729,5.9673 -0.77489,3.55101 -0.25795,5.16148 1.98039,7.24533 17.69456,12.21889 19.54598,18.37648 20.66515,19.60753 -13.00152,3.93043 -26.00411,4.87839 -33.32239,-10.51443 -1.46451,-5.16148 1.63505,-11.55637 1.63505,-11.55637 0.13003,-0.42523 0.17267,-1.51532 0.17267,-1.51532 -1.37818,0.42641 -4.77938,0.14214 -4.77938,0.14214 z"
         id="path3453"
         style="fill:none;stroke:#000000;stroke-width:0.28007627;stroke-linecap:round;stroke-linejoin:round"
         inkscape:connector-curvature="0" />
      <path
         d="m 874.94896,231.84821 c 21.91435,30.21593 29.87962,67.15683 -40.5991,168.08177 35.60549,-54.4164 72.0285,-117.54764 37.88752,-166.0449 l 2.71158,-2.03687"
         id="path3493"
         style="fill:#ffe500"
         inkscape:connector-curvature="0" />
      <path
         d="m 874.94896,231.84821 c 21.91435,30.21593 29.87962,67.15683 -40.5991,168.08177 35.60549,-54.4164 72.0285,-117.54764 37.88752,-166.0449 l 2.71158,-2.03687"
         id="path3495"
         style="fill:none;stroke:#000000;stroke-width:0.1400387;stroke-linecap:round;stroke-linejoin:round"
         inkscape:connector-curvature="0" />
      <path
         d="m 875.12163,235.96894 c 16.40272,19.84363 24.49697,49.53918 0.90386,73.73965 11.36648,-20.45915 18.59949,-41.67597 -3.31486,-72.65074 l 2.411,-1.08891"
         id="path3497"
         style="fill:#ffe500"
         inkscape:connector-curvature="0" />
      <path
         d="m 875.12163,235.96894 c 16.40272,19.84363 24.49697,49.53918 0.90386,73.73965 11.36648,-20.45915 18.59949,-41.67597 -3.31486,-72.65074 l 2.411,-1.08891"
         id="path3499"
         style="fill:none;stroke:#000000;stroke-width:0.1400387;stroke-linecap:round;stroke-linejoin:round"
         inkscape:connector-curvature="0" />
      <path
         d="m 875.76755,234.26449 c 20.53618,24.76901 35.64813,61.00041 6.19912,91.21517 16.31745,-29.41012 22.04332,-45.74972 -9.1697,-89.84198 l 2.97058,-1.37319"
         id="path3501"
         style="fill:#ffe500"
         inkscape:connector-curvature="0" />
      <path
         d="m 875.76755,234.26449 c 20.53618,24.76901 35.64813,61.00041 6.19912,91.21517 16.31745,-29.41012 22.04332,-45.74972 -9.1697,-89.84198 l 2.97058,-1.37319"
         id="path3503"
         style="fill:none;stroke:#000000;stroke-width:0.1400387;stroke-linecap:round;stroke-linejoin:round"
         inkscape:connector-curvature="0" />
      <path
         d="m 877.2747,229.62222 c 25.9604,28.60546 40.08215,75.72954 -16.36009,162.06748 21.74168,-45.5136 54.84983,-114.0906 13.60374,-160.40886 l 2.75635,-1.65862"
         id="path3505"
         style="fill:#ffe500"
         inkscape:connector-curvature="0" />
      <path
         d="m 877.2747,229.62222 c 25.9604,28.60546 40.08215,75.72954 -16.36009,162.06748 21.74168,-45.5136 54.84983,-114.0906 13.60374,-160.40886 l 2.75635,-1.65862"
         id="path3507"
         style="fill:none;stroke:#000000;stroke-width:0.1400387;stroke-linecap:round;stroke-linejoin:round"
         inkscape:connector-curvature="0" />
      <path
         d="m 877.2747,234.26449 c 20.53617,24.76901 35.64812,61.00041 6.15648,91.21517 16.36008,-29.41012 22.04332,-45.74972 -9.12707,-89.84198 l 2.97059,-1.37319"
         id="path3509"
         style="fill:#009900"
         inkscape:connector-curvature="0" />
      <path
         d="m 877.2747,234.26449 c 20.53617,24.76901 35.64812,61.00041 6.15648,91.21517 16.36008,-29.41012 22.04332,-45.74972 -9.12707,-89.84198 l 2.97059,-1.37319"
         id="path3511"
         style="fill:none;stroke:#000000;stroke-width:0.1400387;stroke-linecap:round;stroke-linejoin:round"
         inkscape:connector-curvature="0" />
      <path
         d="m 876.2845,235.96894 c 16.44535,19.84363 21.48267,55.50648 -2.11043,79.65997 13.08785,-23.49097 24.71227,-43.23946 -0.25794,-78.57106 l 2.36837,-1.08891"
         id="path3513"
         style="fill:#009900"
         inkscape:connector-curvature="0" />
      <path
         d="m 876.2845,235.96894 c 16.44535,19.84363 21.48267,55.50648 -2.11043,79.65997 13.08785,-23.49097 24.71227,-43.23946 -0.25794,-78.57106 l 2.36837,-1.08891"
         id="path3515"
         style="fill:none;stroke:#000000;stroke-width:0.1400387;stroke-linecap:round;stroke-linejoin:round"
         inkscape:connector-curvature="0" />
      <path
         d="m 877.87691,228.81757 c 26.00411,28.60547 40.47014,75.161 -15.97317,161.49894 23.03352,-48.21298 59.15596,-109.21338 13.60587,-160.41002 l 2.3673,-1.08892"
         id="path3517"
         style="fill:#009900"
         inkscape:connector-curvature="0" />
      <path
         d="m 877.87691,228.81757 c 26.00411,28.60547 40.47014,75.161 -15.97317,161.49894 23.03352,-48.21298 59.15596,-109.21338 13.60587,-160.41002 l 2.3673,-1.08892"
         id="path3519"
         style="fill:none;stroke:#000000;stroke-width:0.1400387;stroke-linecap:round;stroke-linejoin:round"
         inkscape:connector-curvature="0" />
      <path
         d="m 878.52283,230.61716 c 21.87172,30.12078 33.27976,67.96265 -40.5991,168.03479 35.13118,-53.56477 73.40561,-115.6071 37.88646,-166.04608 l 2.71264,-1.98871"
         id="path3521"
         style="fill:#009900"
         inkscape:connector-curvature="0" />
      <path
         d="m 878.52283,230.61716 c 21.87172,30.12078 33.27976,67.96265 -40.5991,168.03479 35.13118,-53.56477 73.40561,-115.6071 37.88646,-166.04608 l 2.71264,-1.98871"
         id="path3523"
         style="fill:none;stroke:#000000;stroke-width:0.1400387;stroke-linecap:round;stroke-linejoin:round"
         inkscape:connector-curvature="0" />
      <path
         d="m 846.87919,209.02093 c 0.0853,-6.91408 2.96953,-6.06245 2.96953,-6.06245 4.09082,-0.66251 7.79366,-0.37825 7.53466,6.01546 -0.73119,3.55101 -0.25795,5.16148 1.98038,7.19835 17.69563,12.26704 17.65193,17.09727 18.77109,18.32832 -3.40119,1.04193 -5.20891,2.74754 -8.52378,3.12578 -1.12024,0.14213 -2.06673,0.14213 -3.14326,0.18912 -0.73226,0 -1.42081,0.47457 -2.15306,0.37942 4.77937,0.33126 -11.15011,-20.45916 -17.17762,-21.16983 0.81753,-2.74755 1.20551,-3.69433 1.20551,-3.69433 0.12897,-0.4264 0.1716,-1.08891 0.1716,-1.08891 l -1.63505,-3.22093"
         id="path3525"
         style="fill:#ffe500"
         inkscape:connector-curvature="0" />
      <path
         d="m 875.68122,239.37899 c -3.57387,-5.44575 -10.37628,-17.00212 -10.37628,-17.00212 l 0.25901,-0.71067 c 10.2036,9.23523 11.4091,8.76184 10.50524,17.23941 l -0.38797,0.47338"
         id="path3527"
         style="fill:#009900"
         inkscape:connector-curvature="0" />
      <path
         d="m 875.68122,239.37899 c -3.57387,-5.44575 -10.37628,-17.00212 -10.37628,-17.00212 l 0.25901,-0.71067 c 10.2036,9.23523 11.4091,8.76184 10.50524,17.23941 l -0.38797,0.47338"
         id="path3529"
         style="fill:none;stroke:#000000;stroke-width:0.1400387;stroke-linecap:round;stroke-linejoin:round"
         inkscape:connector-curvature="0" />
      <path
         d="m 861.34416,217.59364 c 10.63422,4.78323 14.854,7.34048 20.92415,16.19629 -18.38311,-8.4294 -15.8005,-8.61852 -21.65534,-15.10738 l 0.73119,-1.08891"
         id="path3531"
         style="fill:#009900"
         inkscape:connector-curvature="0" />
      <path
         d="m 861.34416,217.59364 c 10.63422,4.78323 14.854,7.34048 20.92415,16.19629 -18.38311,-8.4294 -15.8005,-8.61852 -21.65534,-15.10738 l 0.73119,-1.08891"
         id="path3533"
         style="fill:none;stroke:#000000;stroke-width:0.1400387;stroke-linecap:round;stroke-linejoin:round"
         inkscape:connector-curvature="0" />
      <path
         d="m 872.23738,239.52113 c -5.03731,-5.5409 -7.87893,-18.3753 -7.87893,-18.3753 l 0.38691,-0.6167 c 7.53465,9.61464 9.9883,13.40411 7.49202,18.992 z"
         id="path3535"
         style="fill:#009900"
         inkscape:connector-curvature="0" />
      <path
         d="m 872.23738,239.52113 c -5.03731,-5.5409 -7.87893,-18.3753 -7.87893,-18.3753 l 0.38691,-0.6167 c 7.53465,9.61464 9.9883,13.40411 7.49202,18.992 z"
         id="path3537"
         style="fill:none;stroke:#000000;stroke-width:0.1400387;stroke-linecap:round;stroke-linejoin:round"
         inkscape:connector-curvature="0" />
      <path
         d="m 869.00779,239.94753 c -3.70285,-4.87839 -5.16629,-15.53378 -5.16629,-15.53378 l 0.30164,-0.47339 c 3.44384,5.25546 7.31828,10.93966 4.86465,16.00717 z"
         id="path3539"
         style="fill:#009900"
         inkscape:connector-curvature="0" />
      <path
         d="m 869.00779,239.94753 c -3.70285,-4.87839 -5.16629,-15.53378 -5.16629,-15.53378 l 0.30164,-0.47339 c 3.44384,5.25546 7.31828,10.93966 4.86465,16.00717 z"
         id="path3541"
         style="fill:none;stroke:#000000;stroke-width:0.1400387;stroke-linecap:round;stroke-linejoin:round"
         inkscape:connector-curvature="0" />
      <path
         d="m 865.90823,239.52113 c -2.84162,-4.45199 -3.35857,-13.68721 -3.35857,-13.68721 l 0.30164,-0.37824 c 3.48754,6.44069 5.03731,10.41811 3.05693,14.06545 z"
         id="path3543"
         style="fill:#009900"
         inkscape:connector-curvature="0" />
      <path
         d="m 865.90823,239.52113 c -2.84162,-4.45199 -3.35857,-13.68721 -3.35857,-13.68721 l 0.30164,-0.37824 c 3.48754,6.44069 5.03731,10.41811 3.05693,14.06545 z"
         id="path3545"
         style="fill:none;stroke:#000000;stroke-width:0.1400387;stroke-linecap:round;stroke-linejoin:round"
         inkscape:connector-curvature="0" />
      <path
         d="m 863.32455,238.85744 c -2.23833,-4.26168 -2.06566,-12.59712 -2.06566,-12.59712 l 0.30057,-0.33125 c 2.67002,6.10944 3.48754,9.85075 1.76509,12.92837 z"
         id="path3547"
         style="fill:#009900"
         inkscape:connector-curvature="0" />
      <path
         d="m 863.32455,238.85744 c -2.23833,-4.26168 -2.06566,-12.59712 -2.06566,-12.59712 l 0.30057,-0.33125 c 2.67002,6.10944 3.48754,9.85075 1.76509,12.92837 z"
         id="path3549"
         style="fill:none;stroke:#000000;stroke-width:0.1400387;stroke-linecap:round;stroke-linejoin:round"
         inkscape:connector-curvature="0" />
      <path
         d="m 860.74194,238.43221 c -1.72245,-4.02558 -0.94756,-11.50937 -0.94756,-11.50937 l 0.259,-0.23612 c 1.54978,2.226 3.74548,7.24652 0.68856,11.74549 z"
         id="path3551"
         style="fill:#009900"
         inkscape:connector-curvature="0" />
      <path
         d="m 860.74194,238.43221 c -1.72245,-4.02558 -0.94756,-11.50937 -0.94756,-11.50937 l 0.259,-0.23612 c 1.54978,2.226 3.74548,7.24652 0.68856,11.74549 z"
         id="path3553"
         style="fill:none;stroke:#000000;stroke-width:0.1400387;stroke-linecap:round;stroke-linejoin:round"
         inkscape:connector-curvature="0" />
      <path
         d="m 871.67779,228.86456 c -4.04712,-1.94172 -8.39588,-8.52456 -8.39588,-8.52456 l 0.17267,-0.33125 c 6.07015,3.36307 8.7391,6.01429 8.22321,8.85581 z"
         id="path3555"
         style="fill:#009900"
         inkscape:connector-curvature="0" />
      <path
         d="m 871.67779,228.86456 c -4.04712,-1.94172 -8.39588,-8.52456 -8.39588,-8.52456 l 0.17267,-0.33125 c 6.07015,3.36307 8.7391,6.01429 8.22321,8.85581 z"
         id="path3557"
         style="fill:none;stroke:#000000;stroke-width:0.1400387;stroke-linecap:round;stroke-linejoin:round"
         inkscape:connector-curvature="0" />
      <path
         d="m 868.83618,228.91272 c -4.04712,-2.79453 -6.28652,-9.18824 -6.28652,-9.18824 l 0.25901,-0.33126 c 5.07994,4.07257 7.23301,6.77195 6.02751,9.5195 z"
         id="path3559"
         style="fill:#009900"
         inkscape:connector-curvature="0" />
      <path
         d="m 868.83618,228.91272 c -4.04712,-2.79453 -6.28652,-9.18824 -6.28652,-9.18824 l 0.25901,-0.33126 c 5.07994,4.07257 7.23301,6.77195 6.02751,9.5195 z"
         id="path3561"
         style="fill:none;stroke:#000000;stroke-width:0.1400387;stroke-linecap:round;stroke-linejoin:round"
         inkscape:connector-curvature="0" />
      <path
         d="m 866.2525,229.10184 c -2.97059,-2.41512 -4.17609,-7.76689 -4.17609,-7.76689 l 0.25794,-0.23728 c 3.74548,3.55219 5.20999,5.82517 3.91815,8.00417 l 0,0"
         id="path3563"
         style="fill:#009900"
         inkscape:connector-curvature="0" />
      <path
         d="m 866.2525,229.10184 c -2.97059,-2.41512 -4.17609,-7.76689 -4.17609,-7.76689 l 0.25794,-0.23728 c 3.74548,3.55219 5.20999,5.82517 3.91815,8.00417 l 0,0"
         id="path3565"
         style="fill:none;stroke:#000000;stroke-width:0.1400387;stroke-linecap:round;stroke-linejoin:round"
         inkscape:connector-curvature="0" />
      <path
         d="m 863.79886,228.91272 c -2.28203,-2.27415 -2.71264,-6.86827 -2.71264,-6.86827 l 0.2153,-0.18913 c 2.79792,3.22094 3.83181,5.25781 2.49734,7.0574 z"
         id="path3567"
         style="fill:#009900"
         inkscape:connector-curvature="0" />
      <path
         d="m 863.79886,228.91272 c -2.28203,-2.27415 -2.71264,-6.86827 -2.71264,-6.86827 l 0.2153,-0.18913 c 2.79792,3.22094 3.83181,5.25781 2.49734,7.0574 z"
         id="path3569"
         style="fill:none;stroke:#000000;stroke-width:0.1400387;stroke-linecap:round;stroke-linejoin:round"
         inkscape:connector-curvature="0" />
      <path
         d="m 861.6895,228.58029 c -1.80879,-2.13085 -1.63612,-6.29856 -1.63612,-6.29856 l 0.21531,-0.18912 c 2.152,3.0788 2.79792,4.92538 1.42081,6.48768 z"
         id="path3571"
         style="fill:#009900"
         inkscape:connector-curvature="0" />
      <path
         d="m 861.6895,228.58029 c -1.80879,-2.13085 -1.63612,-6.29856 -1.63612,-6.29856 l 0.21531,-0.18912 c 2.152,3.0788 2.79792,4.92538 1.42081,6.48768 z"
         id="path3573"
         style="fill:none;stroke:#000000;stroke-width:0.1400387;stroke-linecap:round;stroke-linejoin:round"
         inkscape:connector-curvature="0" />
      <path
         d="m 859.53644,228.34419 c -1.37818,-1.98989 -0.68856,-5.7312 -0.68856,-5.7312 l 0.25794,-0.14214 c 1.54978,2.84152 1.85143,4.59412 0.43062,5.87334 z"
         id="path3575"
         style="fill:#009900"
         inkscape:connector-curvature="0" />
      <path
         d="m 859.53644,228.34419 c -1.37818,-1.98989 -0.68856,-5.7312 -0.68856,-5.7312 l 0.25794,-0.14214 c 1.54978,2.84152 1.85143,4.59412 0.43062,5.87334 z"
         id="path3577"
         style="fill:none;stroke:#000000;stroke-width:0.1400387;stroke-linecap:round;stroke-linejoin:round"
         inkscape:connector-curvature="0" />
      <path
         d="m 866.85472,225.8809 c -4.69197,-2.27298 -8.52378,-8.28726 -8.52378,-8.28726 l 0.17266,-0.37942 c 6.07015,3.41005 8.82544,5.82517 8.35112,8.66668 z"
         id="path3579"
         style="fill:#009900"
         inkscape:connector-curvature="0" />
      <path
         d="m 866.85472,225.8809 c -4.69197,-2.27298 -8.52378,-8.28726 -8.52378,-8.28726 l 0.17266,-0.37942 c 6.07015,3.41005 8.82544,5.82517 8.35112,8.66668 z"
         id="path3581"
         style="fill:none;stroke:#000000;stroke-width:0.1400387;stroke-linecap:round;stroke-linejoin:round"
         inkscape:connector-curvature="0" />
      <path
         d="m 863.8852,226.16517 c -4.04819,-2.74636 -6.28652,-9.18705 -6.28652,-9.18705 l 0.25901,-0.28428 c 5.07995,4.07257 7.23194,6.72497 6.02751,9.47133 z"
         id="path3583"
         style="fill:#009900"
         inkscape:connector-curvature="0" />
      <path
         d="m 863.8852,226.16517 c -4.04819,-2.74636 -6.28652,-9.18705 -6.28652,-9.18705 l 0.25901,-0.28428 c 5.07995,4.07257 7.23194,6.72497 6.02751,9.47133 z"
         id="path3585"
         style="fill:none;stroke:#000000;stroke-width:0.1400387;stroke-linecap:round;stroke-linejoin:round"
         inkscape:connector-curvature="0" />
      <path
         d="m 861.12885,226.40246 c -2.97059,-2.41512 -4.00342,-7.76689 -4.00342,-7.76689 l 0.25795,-0.23728 c 3.74547,3.55218 5.03731,5.82516 3.74547,8.00417 z"
         id="path3587"
         style="fill:#009900"
         inkscape:connector-curvature="0" />
      <path
         d="m 861.12885,226.40246 c -2.97059,-2.41512 -4.00342,-7.76689 -4.00342,-7.76689 l 0.25795,-0.23728 c 3.74547,3.55218 5.03731,5.82516 3.74547,8.00417 z"
         id="path3589"
         style="fill:none;stroke:#000000;stroke-width:0.1400387;stroke-linecap:round;stroke-linejoin:round"
         inkscape:connector-curvature="0" />
      <path
         d="m 858.93316,226.30731 c -2.28097,-2.22599 -2.84162,-6.96224 -2.84162,-6.96224 l 0.259,-0.18912 c 2.79792,3.22092 3.91815,5.35177 2.58262,7.15136 z"
         id="path3591"
         style="fill:#009900"
         inkscape:connector-curvature="0" />
      <path
         d="m 858.93316,226.30731 c -2.28097,-2.22599 -2.84162,-6.96224 -2.84162,-6.96224 l 0.259,-0.18912 c 2.79792,3.22092 3.91815,5.35177 2.58262,7.15136 z"
         id="path3593"
         style="fill:none;stroke:#000000;stroke-width:0.1400387;stroke-linecap:round;stroke-linejoin:round"
         inkscape:connector-curvature="0" />
      <path
         d="m 856.73852,225.83392 c -1.72245,-2.03687 -1.63719,-6.29856 -1.63719,-6.29856 l 0.21531,-0.14214 c 2.15307,3.03065 2.79899,4.92538 1.42188,6.4407 z"
         id="path3595"
         style="fill:#009900"
         inkscape:connector-curvature="0" />
      <path
         d="m 856.73852,225.83392 c -1.72245,-2.03687 -1.63719,-6.29856 -1.63719,-6.29856 l 0.21531,-0.14214 c 2.15307,3.03065 2.79899,4.92538 1.42188,6.4407 z"
         id="path3597"
         style="fill:none;stroke:#000000;stroke-width:0.1400387;stroke-linecap:round;stroke-linejoin:round"
         inkscape:connector-curvature="0" />
      <path
         d="m 854.67179,225.6448 c -1.37818,-2.03688 -0.77488,-5.77818 -0.77488,-5.77818 l 0.25794,-0.0952 c 1.54978,2.84152 1.93669,4.54713 0.51694,5.87333 z"
         id="path3599"
         style="fill:#009900"
         inkscape:connector-curvature="0" />
      <path
         d="m 854.67179,225.6448 c -1.37818,-2.03688 -0.77488,-5.77818 -0.77488,-5.77818 l 0.25794,-0.0952 c 1.54978,2.84152 1.93669,4.54713 0.51694,5.87333 z"
         id="path3601"
         style="fill:none;stroke:#000000;stroke-width:0.1400387;stroke-linecap:round;stroke-linejoin:round"
         inkscape:connector-curvature="0" />
      <path
         d="m 865.69292,222.09261 c -4.52037,-2.17901 -8.48115,-8.43058 -8.48115,-8.43058 l 0.2153,-0.33126 c 6.02751,3.41006 8.78279,5.92032 8.26585,8.76184 z"
         id="path3603"
         style="fill:#009900"
         inkscape:connector-curvature="0" />
      <path
         d="m 865.69292,222.09261 c -4.52037,-2.17901 -8.48115,-8.43058 -8.48115,-8.43058 l 0.2153,-0.33126 c 6.02751,3.41006 8.78279,5.92032 8.26585,8.76184 z"
         id="path3605"
         style="fill:none;stroke:#000000;stroke-width:0.1400387;stroke-linecap:round;stroke-linejoin:round"
         inkscape:connector-curvature="0" />
      <path
         d="m 862.72233,222.28173 c -3.48754,-2.41511 -6.28545,-9.18823 -6.28545,-9.18823 l 0.25794,-0.33126 c 5.12365,4.07373 7.31828,6.77312 6.11385,9.51949 l -0.0863,0"
         id="path3607"
         style="fill:#009900"
         inkscape:connector-curvature="0" />
      <path
         d="m 862.72233,222.28173 c -3.48754,-2.41511 -6.28545,-9.18823 -6.28545,-9.18823 l 0.25794,-0.33126 c 5.12365,4.07373 7.31828,6.77312 6.11385,9.51949 l -0.0863,0"
         id="path3609"
         style="fill:none;stroke:#000000;stroke-width:0.1400387;stroke-linecap:round;stroke-linejoin:round"
         inkscape:connector-curvature="0" />
      <path
         d="m 860.31132,222.37687 c -2.84161,-2.32113 -4.30506,-7.7199 -4.30506,-7.7199 l 0.25794,-0.2361 c 3.74549,3.55101 5.33896,5.68303 4.04712,7.86086 l 0,0.0951"
         id="path3611"
         style="fill:#009900"
         inkscape:connector-curvature="0" />
      <path
         d="m 860.31132,222.37687 c -2.84161,-2.32113 -4.30506,-7.7199 -4.30506,-7.7199 l 0.25794,-0.2361 c 3.74549,3.55101 5.33896,5.68303 4.04712,7.86086"
         id="path3613"
         style="fill:none;stroke:#000000;stroke-width:0.1400387;stroke-linecap:round;stroke-linejoin:round"
         inkscape:connector-curvature="0" />
      <path
         d="m 857.68501,222.23474 c -2.23833,-2.22599 -2.66894,-6.86709 -2.66894,-6.86709 l 0.21424,-0.1903 c 2.79898,3.22094 3.78918,5.2578 2.49734,7.05739 l -0.0427,0"
         id="path3615"
         style="fill:#009900"
         inkscape:connector-curvature="0" />
      <path
         d="m 857.68501,222.23474 c -2.23833,-2.22599 -2.66894,-6.86709 -2.66894,-6.86709 l 0.21424,-0.1903 c 2.79898,3.22094 3.78918,5.2578 2.49734,7.05739 l -0.0427,0"
         id="path3617"
         style="fill:none;stroke:#000000;stroke-width:0.1400387;stroke-linecap:round;stroke-linejoin:round"
         inkscape:connector-curvature="0" />
      <path
         d="m 855.61829,221.90231 c -1.76509,-2.13084 -1.63612,-6.29856 -1.63612,-6.29856 l 0.25901,-0.18912 c 2.10936,3.07881 2.75528,4.92537 1.37711,6.48768 z"
         id="path3619"
         style="fill:#009900"
         inkscape:connector-curvature="0" />
      <path
         d="m 855.61829,221.90231 c -1.76509,-2.13084 -1.63612,-6.29856 -1.63612,-6.29856 l 0.25901,-0.18912 c 2.10936,3.07881 2.75528,4.92537 1.37711,6.48768 z"
         id="path3621"
         style="fill:none;stroke:#000000;stroke-width:0.1400387;stroke-linecap:round;stroke-linejoin:round"
         inkscape:connector-curvature="0" />
      <path
         d="m 853.46522,221.80834 c -1.37711,-2.03687 -0.68855,-5.87215 -0.68855,-5.87215 l 0.259,-0.14331 c 1.54978,2.88967 1.85036,4.68926 0.42955,6.01546 z"
         id="path3623"
         style="fill:#009900"
         inkscape:connector-curvature="0" />
      <path
         d="m 853.46522,221.80834 c -1.37711,-2.03687 -0.68855,-5.87215 -0.68855,-5.87215 l 0.259,-0.14331 c 1.54978,2.88967 1.85036,4.68926 0.42955,6.01546 z"
         id="path3625"
         style="fill:none;stroke:#000000;stroke-width:0.1400387;stroke-linecap:round;stroke-linejoin:round"
         inkscape:connector-curvature="0" />
      <path
         d="m 852.90564,224.41375 c -1.33447,-2.03688 -0.73119,-5.77818 -0.73119,-5.77818 l 0.21531,-0.0951 c 1.76509,3.17277 2.10936,4.49897 0.55958,5.87333 l -0.0437,0"
         id="path3627"
         style="fill:#009900"
         inkscape:connector-curvature="0" />
      <path
         d="m 852.90564,224.41375 c -1.33447,-2.03688 -0.73119,-5.77818 -0.73119,-5.77818 l 0.21531,-0.0951 c 1.76509,3.17277 2.10936,4.49897 0.55958,5.87333 l -0.0437,0"
         id="path3629"
         style="fill:none;stroke:#000000;stroke-width:0.1400387;stroke-linecap:round;stroke-linejoin:round"
         inkscape:connector-curvature="0" />
      <path
         d="m 851.91544,220.34 c -1.33447,-2.03687 -0.73118,-5.77817 -0.73118,-5.77817 l 0.21423,-0.14096 c 1.59349,2.8885 2.11043,4.49897 0.68962,5.82399 l -0.17267,0.0951"
         id="path3631"
         style="fill:#009900"
         inkscape:connector-curvature="0" />
      <path
         d="m 851.91544,220.34 c -1.33447,-2.03687 -0.73118,-5.77817 -0.73118,-5.77817 l 0.21423,-0.14096 c 1.59349,2.8885 2.11043,4.49897 0.68962,5.82399"
         id="path3633"
         style="fill:none;stroke:#000000;stroke-width:0.1400387;stroke-linecap:round;stroke-linejoin:round"
         inkscape:connector-curvature="0" />
      <path
         d="m 851.4422,223.60792 c -1.37712,-2.03687 -0.7749,-5.77817 -0.7749,-5.77817 l 0.25795,-0.14214 c 1.55085,2.88968 1.98039,4.59412 0.55958,5.92031 l -0.0426,0"
         id="path3635"
         style="fill:#009900"
         inkscape:connector-curvature="0" />
      <path
         d="m 851.4422,223.60792 c -1.37712,-2.03687 -0.7749,-5.77817 -0.7749,-5.77817 l 0.25795,-0.14214 c 1.55085,2.88968 1.98039,4.59412 0.55958,5.92031 l -0.0426,0"
         id="path3637"
         style="fill:none;stroke:#000000;stroke-width:0.1400387;stroke-linecap:round;stroke-linejoin:round"
         inkscape:connector-curvature="0" />
      <path
         d="m 850.32303,222.51901 c -1.37817,-2.03687 -0.77489,-5.77818 -0.77489,-5.77818 l 0.25794,-0.14213 c 1.54978,2.8885 1.98039,4.6411 0.55958,5.9673 l -0.0426,-0.047"
         id="path3639"
         style="fill:#009900"
         inkscape:connector-curvature="0" />
      <path
         d="m 850.32303,222.51901 c -1.37817,-2.03687 -0.77489,-5.77818 -0.77489,-5.77818 l 0.25794,-0.14213 c 1.54978,2.8885 1.98039,4.6411 0.55958,5.9673 l -0.0426,-0.047"
         id="path3641"
         style="fill:none;stroke:#000000;stroke-width:0.1400387;stroke-linecap:round;stroke-linejoin:round"
         inkscape:connector-curvature="0" />
      <path
         d="m 847.61038,221.6662 c -0.86122,-2.32113 0.60222,-5.73001 0.60222,-5.73001 l 0.25901,-0.0952 c 0.86122,3.22093 0.86122,5.01934 -0.86123,5.87215 l 0,-0.0469"
         id="path3643"
         style="fill:#009900"
         inkscape:connector-curvature="0" />
      <path
         d="m 847.61038,221.6662 c -0.86122,-2.32113 0.60222,-5.73001 0.60222,-5.73001 l 0.25901,-0.0952 c 0.86122,3.22093 0.86122,5.01934 -0.86123,5.87215 l 0,-0.0469"
         id="path3645"
         style="fill:none;stroke:#000000;stroke-width:0.1400387;stroke-linecap:round;stroke-linejoin:round"
         inkscape:connector-curvature="0" />
      <path
         d="m 848.72955,222.09261 c -0.86123,-2.32114 0.60328,-5.77818 0.60328,-5.77818 l 0.25794,-0.047 c 0.86123,3.21977 0.81859,4.97237 -0.86122,5.82517 z"
         id="path3647"
         style="fill:#009900"
         inkscape:connector-curvature="0" />
      <path
         d="m 848.72955,222.09261 c -0.86123,-2.32114 0.60328,-5.77818 0.60328,-5.77818 l 0.25794,-0.047 c 0.86123,3.21977 0.81859,4.97237 -0.86122,5.82517 z"
         id="path3649"
         style="fill:none;stroke:#000000;stroke-width:0.1400387;stroke-linecap:round;stroke-linejoin:round"
         inkscape:connector-curvature="0" />
      <path
         d="m 846.74916,221.00369 c -0.86016,-2.32114 0.60328,-5.77817 0.60328,-5.77817 l 0.25794,-0.0481 c 0.86123,3.22093 0.81859,4.97353 -0.86122,5.82634 z"
         id="path3651"
         style="fill:#009900"
         inkscape:connector-curvature="0" />
      <path
         d="m 846.74916,221.00369 c -0.86016,-2.32114 0.60328,-5.77817 0.60328,-5.77817 l 0.25794,-0.0481 c 0.86123,3.22093 0.81859,4.97353 -0.86122,5.82634 z"
         id="path3653"
         style="fill:none;stroke:#000000;stroke-width:0.1400387;stroke-linecap:round;stroke-linejoin:round"
         inkscape:connector-curvature="0" />
      <path
         d="m 851.91544,220.34 c -1.33447,-2.03687 -0.73118,-5.77817 -0.73118,-5.77817 l 0.21423,-0.14096 c 1.59349,2.8885 2.11043,4.49897 0.68962,5.82399 l -0.17267,0.0951"
         id="path3655"
         style="fill:#009900"
         inkscape:connector-curvature="0" />
      <path
         d="m 851.91544,220.34 c -1.33447,-2.03687 -0.73118,-5.77817 -0.73118,-5.77817 l 0.21423,-0.14096 c 1.59349,2.8885 2.11043,4.49897 0.68962,5.82399"
         id="path3657"
         style="fill:none;stroke:#000000;stroke-width:0.1400387;stroke-linecap:round;stroke-linejoin:round"
         inkscape:connector-curvature="0" />
      <path
         d="m 850.83998,219.25109 c -1.37818,-2.03687 -0.7749,-5.77818 -0.7749,-5.77818 l 0.21425,-0.14214 c 1.59348,2.88851 2.11043,4.49898 0.68962,5.82518 l -0.12897,0.0951"
         id="path3659"
         style="fill:#009900"
         inkscape:connector-curvature="0" />
      <path
         d="m 850.83998,219.25109 c -1.37818,-2.03687 -0.7749,-5.77818 -0.7749,-5.77818 l 0.21425,-0.14214 c 1.59348,2.88851 2.11043,4.49898 0.68962,5.82518"
         id="path3661"
         style="fill:none;stroke:#000000;stroke-width:0.1400387;stroke-linecap:round;stroke-linejoin:round"
         inkscape:connector-curvature="0" />
      <path
         d="m 848.08363,218.39829 c -0.81753,-2.31997 0.64592,-5.77819 0.64592,-5.77819 l 0.259,-0.047 c 0.81753,3.21977 0.9465,4.92537 -0.73225,5.82517 l -0.17267,0"
         id="path3663"
         style="fill:#009900"
         inkscape:connector-curvature="0" />
      <path
         d="m 848.08363,218.39829 c -0.81753,-2.31997 0.64592,-5.77819 0.64592,-5.77819 l 0.259,-0.047 c 0.81753,3.21977 0.9465,4.92537 -0.73225,5.82517"
         id="path3665"
         style="fill:none;stroke:#000000;stroke-width:0.1400387;stroke-linecap:round;stroke-linejoin:round"
         inkscape:connector-curvature="0" />
      <path
         d="m 849.20386,218.82469 c -0.81859,-2.32114 0.64486,-5.77819 0.64486,-5.77819 l 0.259,-0.0469 c 0.81753,3.21976 0.94757,4.92537 -0.73225,5.77701 l -0.17161,0.0482"
         id="path3667"
         style="fill:#009900"
         inkscape:connector-curvature="0" />
      <path
         d="m 849.20386,218.82469 c -0.81859,-2.32114 0.64486,-5.77819 0.64486,-5.77819 l 0.259,-0.0469 c 0.81753,3.21976 0.94757,4.92537 -0.73225,5.77701"
         id="path3669"
         style="fill:none;stroke:#000000;stroke-width:0.1400387;stroke-linecap:round;stroke-linejoin:round"
         inkscape:connector-curvature="0" />
      <path
         d="m 865.56395,221.6662 c 10.2036,9.23523 14.16438,7.52962 13.21683,16.00717 l -0.34428,0.4734 c -3.61651,-5.44575 -13.13156,-15.7699 -13.13156,-15.7699 l 0.25901,-0.71067"
         id="path3671"
         style="fill:#009900"
         inkscape:connector-curvature="0" />
      <path
         d="m 865.56395,221.6662 c 10.2036,9.23523 14.16438,7.52962 13.21683,16.00717 l -0.34428,0.4734 c -3.61651,-5.44575 -13.13156,-15.7699 -13.13156,-15.7699"
         id="path3673"
         style="fill:none;stroke:#000000;stroke-width:0.1400387;stroke-linecap:round;stroke-linejoin:round"
         inkscape:connector-curvature="0" />
      <path
         d="m 853.55156,217.54548 c -0.9902,-1.42018 -0.55958,-4.02558 -0.55958,-4.02558 l 0.17266,-0.094 c 1.11918,1.98871 1.46345,3.12579 0.47325,4.07257 l -0.0863,0.047"
         id="path3765"
         style="fill:#009900"
         inkscape:connector-curvature="0" />
      <path
         d="m 853.55156,217.54548 c -0.9902,-1.42018 -0.55958,-4.02558 -0.55958,-4.02558 l 0.17266,-0.094 c 1.11918,1.98871 1.46345,3.12579 0.47325,4.07257"
         id="path3767"
         style="fill:none;stroke:#000000;stroke-width:0.1400387;stroke-linecap:round;stroke-linejoin:round"
         inkscape:connector-curvature="0" />
      <path
         d="m 852.73404,216.78782 c -0.94757,-1.42017 -0.51696,-4.02558 -0.51696,-4.02558 l 0.17268,-0.094 c 1.07546,1.9887 1.46344,3.12461 0.47325,4.02557 l -0.12897,0.094"
         id="path3769"
         style="fill:#009900"
         inkscape:connector-curvature="0" />
      <path
         d="m 852.73404,216.78782 c -0.94757,-1.42017 -0.51696,-4.02558 -0.51696,-4.02558 l 0.17268,-0.094 c 1.07546,1.9887 1.46344,3.12461 0.47325,4.02557"
         id="path3771"
         style="fill:none;stroke:#000000;stroke-width:0.1400387;stroke-linecap:round;stroke-linejoin:round"
         inkscape:connector-curvature="0" />
      <path
         d="m 850.83998,216.21928 c -0.60329,-1.65745 0.43061,-4.07257 0.43061,-4.07257 l 0.17161,-0.047 c 0.60328,2.27298 0.68962,3.45704 -0.47325,4.07256 l -0.12897,0.047"
         id="path3773"
         style="fill:#009900"
         inkscape:connector-curvature="0" />
      <path
         d="m 850.83998,216.21928 c -0.60329,-1.65745 0.43061,-4.07257 0.43061,-4.07257 l 0.17161,-0.047 c 0.60328,2.27298 0.68962,3.45704 -0.47325,4.07256"
         id="path3775"
         style="fill:none;stroke:#000000;stroke-width:0.1400387;stroke-linecap:round;stroke-linejoin:round"
         inkscape:connector-curvature="0" />
      <path
         d="m 851.61486,216.50355 c -0.55957,-1.65745 0.43062,-4.07257 0.43062,-4.07257 l 0.21531,-0.047 c 0.55958,2.27297 0.64485,3.45703 -0.51696,4.07256 l -0.12897,0.047"
         id="path3777"
         style="fill:#009900"
         inkscape:connector-curvature="0" />
      <path
         d="m 851.61486,216.50355 c -0.55957,-1.65745 0.43062,-4.07257 0.43062,-4.07257 l 0.21531,-0.047 c 0.55958,2.27297 0.64485,3.45703 -0.51696,4.07256"
         id="path3779"
         style="fill:none;stroke:#000000;stroke-width:0.1400387;stroke-linecap:round;stroke-linejoin:round"
         inkscape:connector-curvature="0" />
      <path
         d="m 854.32645,216.78782 c 0.94756,-1.42017 0.51694,-4.02558 0.51694,-4.02558 l -0.1716,-0.094 c -1.07653,1.9887 -1.46451,3.12461 -0.47431,4.02557 l 0.12897,0.094"
         id="path3781"
         style="fill:#009900"
         inkscape:connector-curvature="0" />
      <path
         d="m 854.32645,216.78782 c 0.94756,-1.42017 0.51694,-4.02558 0.51694,-4.02558 l -0.1716,-0.094 c -1.07653,1.9887 -1.46451,3.12461 -0.47431,4.02557"
         id="path3783"
         style="fill:none;stroke:#000000;stroke-width:0.1400387;stroke-linecap:round;stroke-linejoin:round"
         inkscape:connector-curvature="0" />
      <path
         d="m 856.22157,216.21928 c 0.60222,-1.65745 -0.43061,-4.07257 -0.43061,-4.07257 l -0.17267,-0.047 c -0.60222,2.27298 -0.68856,3.45704 0.51694,4.07256 l 0.0863,0.047"
         id="path3785"
         style="fill:#009900"
         inkscape:connector-curvature="0" />
      <path
         d="m 856.22157,216.21928 c 0.60222,-1.65745 -0.43061,-4.07257 -0.43061,-4.07257 l -0.17267,-0.047 c -0.60222,2.27298 -0.68856,3.45704 0.51694,4.07256"
         id="path3787"
         style="fill:none;stroke:#000000;stroke-width:0.1400387;stroke-linecap:round;stroke-linejoin:round"
         inkscape:connector-curvature="0" />
      <path
         d="m 855.44668,216.50355 c 0.60222,-1.65745 -0.43061,-4.07257 -0.43061,-4.07257 l -0.21531,-0.047 c -0.55958,2.27297 -0.64591,3.45703 0.51588,4.07256 l 0.13004,0.047"
         id="path3789"
         style="fill:#009900"
         inkscape:connector-curvature="0" />
      <path
         d="m 855.44668,216.50355 c 0.60222,-1.65745 -0.43061,-4.07257 -0.43061,-4.07257 l -0.21531,-0.047 c -0.55958,2.27297 -0.64591,3.45703 0.51588,4.07256"
         id="path3791"
         style="fill:none;stroke:#000000;stroke-width:0.1400387;stroke-linecap:round;stroke-linejoin:round"
         inkscape:connector-curvature="0" />
      <path
         d="m 856.95276,214.8461 c 0.21531,-1.23105 -0.86122,-2.4621 -0.86122,-2.4621 l -0.12897,0 c -0.17161,1.61046 0.12897,2.17783 0.99019,2.4621 z"
         id="path3793"
         style="fill:#009900"
         inkscape:connector-curvature="0" />
      <path
         d="m 856.95276,214.8461 c 0.21531,-1.23105 -0.86122,-2.4621 -0.86122,-2.4621 l -0.12897,0 c -0.17161,1.61046 0.12897,2.17783 0.99019,2.4621 z"
         id="path3795"
         style="fill:none;stroke:#000000;stroke-width:0.1400387;stroke-linecap:round;stroke-linejoin:round"
         inkscape:connector-curvature="0" />
      <path
         d="m 858.15826,213.37894 c -0.0427,-1.23223 -1.33447,-2.41629 -1.33447,-2.41629 l -0.12897,0.047 c 0.21531,1.61046 0.47325,2.3693 1.42081,2.3693 l 0.0427,0"
         id="path3797"
         style="fill:#009900"
         inkscape:connector-curvature="0" />
      <path
         d="m 858.15826,213.37894 c -0.0427,-1.23223 -1.33447,-2.41629 -1.33447,-2.41629 l -0.12897,0.047 c 0.21531,1.61046 0.47325,2.3693 1.42081,2.3693"
         id="path3799"
         style="fill:none;stroke:#000000;stroke-width:0.1400387;stroke-linecap:round;stroke-linejoin:round"
         inkscape:connector-curvature="0" />
      <path
         d="m 857.77135,213.80417 c -0.0863,-1.23105 -1.37818,-2.41512 -1.37818,-2.41512 l -0.12897,0.047 c 0.21531,1.61047 0.51696,2.41629 1.42081,2.41629 l 0.0863,-0.0482"
         id="path3801"
         style="fill:#009900"
         inkscape:connector-curvature="0" />
      <path
         d="m 857.77135,213.80417 c -0.0863,-1.23105 -1.37818,-2.41512 -1.37818,-2.41512 l -0.12897,0.047 c 0.21531,1.61047 0.51696,2.41629 1.42081,2.41629"
         id="path3803"
         style="fill:none;stroke:#000000;stroke-width:0.1400387;stroke-linecap:round;stroke-linejoin:round"
         inkscape:connector-curvature="0" />
      <path
         d="m 858.89052,212.71525 c -1.11917,-0.0951 -2.23833,-1.51532 -2.23833,-1.51532 l 0.0427,-0.14213 c 1.46344,0.2361 2.19569,0.56854 2.19569,1.5623 l 0,0.0951"
         id="path3805"
         style="fill:#009900"
         inkscape:connector-curvature="0" />
      <path
         d="m 858.89052,212.71525 c -1.11917,-0.0951 -2.23833,-1.51532 -2.23833,-1.51532 l 0.0427,-0.14213 c 1.46344,0.2361 2.19569,0.56854 2.19569,1.5623"
         id="path3807"
         style="fill:none;stroke:#000000;stroke-width:0.1400387;stroke-linecap:round;stroke-linejoin:round"
         inkscape:connector-curvature="0" />
      <path
         d="m 858.84788,211.90943 c -0.259,-1.23105 -1.72245,-2.13085 -1.72245,-2.13085 l -0.12897,0.047 c 0.47325,1.56348 0.90386,2.27415 1.80772,2.08386 l 0.0437,0"
         id="path3809"
         style="fill:#009900"
         inkscape:connector-curvature="0" />
      <path
         d="m 858.84788,211.90943 c -0.259,-1.23105 -1.72245,-2.13085 -1.72245,-2.13085 l -0.12897,0.047 c 0.47325,1.56348 0.90386,2.27415 1.80772,2.08386"
         id="path3811"
         style="fill:none;stroke:#000000;stroke-width:0.1400387;stroke-linecap:round;stroke-linejoin:round"
         inkscape:connector-curvature="0" />
      <path
         d="m 859.4501,210.48925 c -0.55958,-1.04192 -2.19569,-1.5623 -2.19569,-1.5623 l -0.0863,0.094 c 0.81859,1.37318 1.37817,1.94172 2.19569,1.51532 l 0.0863,-0.047"
         id="path3813"
         style="fill:#009900"
         inkscape:connector-curvature="0" />
      <path
         d="m 859.4501,210.48925 c -0.55958,-1.04192 -2.19569,-1.5623 -2.19569,-1.5623 l -0.0863,0.094 c 0.81859,1.37318 1.37817,1.94172 2.19569,1.51532"
         id="path3815"
         style="fill:none;stroke:#000000;stroke-width:0.1400387;stroke-linecap:round;stroke-linejoin:round"
         inkscape:connector-curvature="0" />
      <path
         d="m 859.23479,211.10478 c -0.55958,-1.08891 -2.19569,-1.5623 -2.19569,-1.5623 l -0.0863,0.094 c 0.81859,1.3262 1.37818,1.94173 2.1957,1.51649 l 0.0863,-0.0481"
         id="path3817"
         style="fill:#009900"
         inkscape:connector-curvature="0" />
      <path
         d="m 859.23479,211.10478 c -0.55958,-1.08891 -2.19569,-1.5623 -2.19569,-1.5623 l -0.0863,0.094 c 0.81859,1.3262 1.37818,1.94173 2.1957,1.51649"
         id="path3819"
         style="fill:none;stroke:#000000;stroke-width:0.1400387;stroke-linecap:round;stroke-linejoin:round"
         inkscape:connector-curvature="0" />
      <path
         d="m 859.23479,209.21005 c -1.03283,0.47457 -2.53997,-0.33125 -2.53997,-0.33125 l -0.0427,-0.14215 c 1.41973,-0.47338 2.19569,-0.52037 2.5826,0.37942 l 0,0.094"
         id="path3821"
         style="fill:#009900"
         inkscape:connector-curvature="0" />
      <path
         d="m 859.23479,209.21005 c -1.03283,0.47457 -2.53997,-0.33125 -2.53997,-0.33125 l -0.0427,-0.14215 c 1.41973,-0.47338 2.19569,-0.52037 2.5826,0.37942"
         id="path3823"
         style="fill:none;stroke:#000000;stroke-width:0.1400387;stroke-linecap:round;stroke-linejoin:round"
         inkscape:connector-curvature="0" />
      <path
         d="m 859.88071,208.78482 c -0.73225,-0.99494 -2.411,-1.13708 -2.411,-1.13708 l -0.0863,0.0951 c 1.03389,1.18406 1.67875,1.65745 2.411,1.08891 l 0.0863,-0.047"
         id="path3825"
         style="fill:#009900"
         inkscape:connector-curvature="0" />
      <path
         d="m 859.88071,208.78482 c -0.73225,-0.99494 -2.411,-1.13708 -2.411,-1.13708 l -0.0863,0.0951 c 1.03389,1.18406 1.67875,1.65745 2.411,1.08891"
         id="path3827"
         style="fill:none;stroke:#000000;stroke-width:0.1400387;stroke-linecap:round;stroke-linejoin:round"
         inkscape:connector-curvature="0" />
      <path
         d="m 859.36376,207.78988 c -0.68855,-0.99495 -2.411,-1.13708 -2.411,-1.13708 l -0.0863,0.0951 c 1.0339,1.18406 1.67982,1.65745 2.45471,1.08891 l 0.0426,-0.047"
         id="path3829"
         style="fill:#009900"
         inkscape:connector-curvature="0" />
      <path
         d="m 859.36376,207.78988 c -0.68855,-0.99495 -2.411,-1.13708 -2.411,-1.13708 l -0.0863,0.0951 c 1.0339,1.18406 1.67982,1.65745 2.45471,1.08891"
         id="path3831"
         style="fill:none;stroke:#000000;stroke-width:0.1400387;stroke-linecap:round;stroke-linejoin:round"
         inkscape:connector-curvature="0" />
      <path
         d="m 859.53644,206.51067 c -0.90493,-0.71068 -2.58368,-0.37825 -2.58368,-0.37825 l -0.0426,0.094 c 1.29183,0.8528 1.98038,1.13707 2.5826,0.37942 l 0.0437,-0.0951"
         id="path3833"
         style="fill:#009900"
         inkscape:connector-curvature="0" />
      <path
         d="m 859.53644,206.51067 c -0.90493,-0.71068 -2.58368,-0.37825 -2.58368,-0.37825 l -0.0426,0.094 c 1.29183,0.8528 1.98038,1.13707 2.5826,0.37942"
         id="path3835"
         style="fill:none;stroke:#000000;stroke-width:0.1400387;stroke-linecap:round;stroke-linejoin:round"
         inkscape:connector-curvature="0" />
      <path
         d="m 858.93316,204.85321 c -1.07547,-0.37824 -2.53999,0.56854 -2.53999,0.56854 l 0,0.14213 c 1.46452,0.28427 2.23834,0.28427 2.53999,-0.66251 l 0,-0.0481"
         id="path3837"
         style="fill:#009900"
         inkscape:connector-curvature="0" />
      <path
         d="m 858.93316,204.85321 c -1.07547,-0.37824 -2.53999,0.56854 -2.53999,0.56854 l 0,0.14213 c 1.46452,0.28427 2.23834,0.28427 2.53999,-0.66251"
         id="path3839"
         style="fill:none;stroke:#000000;stroke-width:0.1400387;stroke-linecap:round;stroke-linejoin:round"
         inkscape:connector-curvature="0" />
      <path
         d="m 858.28723,204.47497 c -1.03282,-0.37942 -2.49627,0.56736 -2.49627,0.56736 l -0.0437,0.14214 c 1.4645,0.28426 2.2394,0.28426 2.53997,-0.66252 l 0,-0.047"
         id="path3841"
         style="fill:#009900"
         inkscape:connector-curvature="0" />
      <path
         d="m 858.28723,204.47497 c -1.03282,-0.37942 -2.49627,0.56736 -2.49627,0.56736 l -0.0437,0.14214 c 1.4645,0.28426 2.2394,0.28426 2.53997,-0.66252"
         id="path3843"
         style="fill:none;stroke:#000000;stroke-width:0.1400387;stroke-linecap:round;stroke-linejoin:round"
         inkscape:connector-curvature="0" />
      <path
         d="m 857.12543,203.43304 c -1.11917,-0.0481 -2.28204,1.27804 -2.28204,1.27804 l 0,0.14213 c 1.46345,-0.14213 2.2394,-0.37824 2.28204,-1.37318 l 0,-0.047"
         id="path3845"
         style="fill:#009900"
         inkscape:connector-curvature="0" />
      <path
         d="m 857.12543,203.43304 c -1.11917,-0.0481 -2.28204,1.27804 -2.28204,1.27804 l 0,0.14213 c 1.46345,-0.14213 2.2394,-0.37824 2.28204,-1.37318"
         id="path3847"
         style="fill:none;stroke:#000000;stroke-width:0.1400387;stroke-linecap:round;stroke-linejoin:round"
         inkscape:connector-curvature="0" />
      <path
         d="m 857.85769,203.71613 c -1.11917,-0.047 -2.32574,1.27922 -2.32574,1.27922 l 0.0437,0.14213 c 1.46344,-0.14213 2.23833,-0.33126 2.28203,-1.37318 l 0,-0.0481"
         id="path3849"
         style="fill:#009900"
         inkscape:connector-curvature="0" />
      <path
         d="m 857.85769,203.71613 c -1.11917,-0.047 -2.32574,1.27922 -2.32574,1.27922 l 0.0437,0.14213 c 1.46344,-0.14213 2.23833,-0.33126 2.28203,-1.37318"
         id="path3851"
         style="fill:none;stroke:#000000;stroke-width:0.1400387;stroke-linecap:round;stroke-linejoin:round"
         inkscape:connector-curvature="0" />
      <path
         d="m 856.35054,201.91655 c -0.17267,1.23222 -1.54978,2.27415 -1.54978,2.27415 l -0.12897,-0.0481 c 0.34428,-1.56231 0.68856,-2.31997 1.59241,-2.22599 l 0.0863,0"
         id="path3853"
         style="fill:#009900"
         inkscape:connector-curvature="0" />
      <path
         d="m 856.35054,201.91655 c -0.17267,1.23222 -1.54978,2.27415 -1.54978,2.27415 l -0.12897,-0.0481 c 0.34428,-1.56231 0.68856,-2.31997 1.59241,-2.22599"
         id="path3855"
         style="fill:none;stroke:#000000;stroke-width:0.1400387;stroke-linecap:round;stroke-linejoin:round"
         inkscape:connector-curvature="0" />
      <path
         d="m 856.39317,202.72237 c -0.1716,1.23105 -1.54978,2.27298 -1.54978,2.27298 l -0.12897,-0.047 c 0.34428,-1.56348 0.68856,-2.32115 1.59242,-2.226 l 0.0863,0"
         id="path3857"
         style="fill:#009900"
         inkscape:connector-curvature="0" />
      <path
         d="m 856.39317,202.72237 c -0.1716,1.23105 -1.54978,2.27298 -1.54978,2.27298 l -0.12897,-0.047 c 0.34428,-1.56348 0.68856,-2.32115 1.59242,-2.226"
         id="path3859"
         style="fill:none;stroke:#000000;stroke-width:0.1400387;stroke-linecap:round;stroke-linejoin:round"
         inkscape:connector-curvature="0" />
      <path
         d="m 855.61829,201.86956 c -1.11917,0.18912 -2.06673,1.70444 -2.06673,1.70444 l 0.0437,0.14213 c 1.42081,-0.37823 2.10937,-0.75765 2.06673,-1.75143 l -0.0437,-0.0951"
         id="path3861"
         style="fill:#009900"
         inkscape:connector-curvature="0" />
      <path
         d="m 855.61829,201.86956 c -1.11917,0.18912 -2.06673,1.70444 -2.06673,1.70444 l 0.0437,0.14213 c 1.42081,-0.37823 2.10937,-0.75765 2.06673,-1.75143"
         id="path3863"
         style="fill:none;stroke:#000000;stroke-width:0.1400387;stroke-linecap:round;stroke-linejoin:round"
         inkscape:connector-curvature="0" />
      <path
         d="m 854.41279,201.1119 c -1.03284,0.52155 -1.59242,2.27298 -1.59242,2.27298 l 0.0853,0.0951 c 1.16287,-0.71068 1.89512,-1.27922 1.54978,-2.27298 l -0.0426,-0.0952"
         id="path3865"
         style="fill:#009900"
         inkscape:connector-curvature="0" />
      <path
         d="m 854.41279,201.1119 c -1.03284,0.52155 -1.59242,2.27298 -1.59242,2.27298 l 0.0853,0.0951 c 1.16287,-0.71068 1.89512,-1.27922 1.54978,-2.27298"
         id="path3867"
         style="fill:none;stroke:#000000;stroke-width:0.1400387;stroke-linecap:round;stroke-linejoin:round"
         inkscape:connector-curvature="0" />
      <path
         d="m 854.92973,201.39617 c -1.03282,0.52038 -1.80878,2.46328 -1.80878,2.46328 l 0.0863,0.33125 c 0.77489,-0.47457 2.28204,-1.18524 1.76508,-2.70056 l -0.0426,-0.094"
         id="path3869"
         style="fill:#009900"
         inkscape:connector-curvature="0" />
      <path
         d="m 854.92973,201.39617 c -1.03282,0.52038 -1.80878,2.46328 -1.80878,2.46328 l 0.0863,0.33125 c 0.77489,-0.47457 2.28204,-1.18524 1.76508,-2.70056"
         id="path3871"
         style="fill:none;stroke:#000000;stroke-width:0.1400387;stroke-linecap:round;stroke-linejoin:round"
         inkscape:connector-curvature="0" />
      <path
         d="m 848.04099,201.39617 c -0.0427,1.23105 1.16287,2.60423 1.16287,2.60423 l 0.12897,-0.047 c -0.0863,-1.61046 -0.30164,-2.41511 -1.2055,-2.55725 l -0.0863,0"
         id="path3873"
         style="fill:#009900"
         inkscape:connector-curvature="0" />
      <path
         d="m 848.04099,201.39617 c -0.0427,1.23105 1.16287,2.60423 1.16287,2.60423 l 0.12897,-0.047 c -0.0863,-1.61046 -0.30164,-2.41511 -1.2055,-2.55725"
         id="path3875"
         style="fill:none;stroke:#000000;stroke-width:0.1400387;stroke-linecap:round;stroke-linejoin:round"
         inkscape:connector-curvature="0" />
      <path
         d="m 846.87919,202.76935 c 0.17161,1.23105 1.54978,2.27298 1.54978,2.27298 l 0.12897,-0.047 c -0.34534,-1.56231 -0.68962,-2.32113 -1.59348,-2.27298 l -0.0853,0.047"
         id="path3877"
         style="fill:#009900"
         inkscape:connector-curvature="0" />
      <path
         d="m 846.87919,202.76935 c 0.17161,1.23105 1.54978,2.27298 1.54978,2.27298 l 0.12897,-0.047 c -0.34534,-1.56231 -0.68962,-2.32113 -1.59348,-2.27298"
         id="path3879"
         style="fill:none;stroke:#000000;stroke-width:0.1400387;stroke-linecap:round;stroke-linejoin:round"
         inkscape:connector-curvature="0" />
      <path
         d="m 847.2661,202.29597 c 0.17161,1.23104 1.54978,2.27298 1.54978,2.27298 l 0.12898,-0.047 c -0.34428,-1.56348 -0.68856,-2.32114 -1.59242,-2.27297 l -0.0863,0.047"
         id="path3881"
         style="fill:#009900"
         inkscape:connector-curvature="0" />
      <path
         d="m 847.2661,202.29597 c 0.17161,1.23104 1.54978,2.27298 1.54978,2.27298 l 0.12898,-0.047 c -0.34428,-1.56348 -0.68856,-2.32114 -1.59242,-2.27297"
         id="path3883"
         style="fill:none;stroke:#000000;stroke-width:0.1400387;stroke-linecap:round;stroke-linejoin:round"
         inkscape:connector-curvature="0" />
      <path
         d="m 850.15036,200.6855 c 0.86122,0.75766 0.99019,2.6524 0.99019,2.6524 l -0.0853,0.0951 c -1.07654,-1.13707 -1.50715,-1.84775 -0.99021,-2.70056 l 0.0853,-0.047"
         id="path3885"
         style="fill:#009900"
         inkscape:connector-curvature="0" />
      <path
         d="m 850.15036,200.6855 c 0.86122,0.75766 0.99019,2.6524 0.99019,2.6524 l -0.0853,0.0951 c -1.07654,-1.13707 -1.50715,-1.84775 -0.99021,-2.70056"
         id="path3887"
         style="fill:none;stroke:#000000;stroke-width:0.1400387;stroke-linecap:round;stroke-linejoin:round"
         inkscape:connector-curvature="0" />
      <path
         d="m 849.59077,200.82763 c 0.86123,0.75766 0.9902,2.60541 0.9902,2.60541 l -0.0853,0.094 c -1.07653,-1.13589 -1.50715,-1.84657 -0.99126,-2.65122 l 0.0863,-0.0481"
         id="path3889"
         style="fill:#009900"
         inkscape:connector-curvature="0" />
      <path
         d="m 849.59077,200.82763 c 0.86123,0.75766 0.9902,2.60541 0.9902,2.60541 l -0.0853,0.094 c -1.07653,-1.13589 -1.50715,-1.84657 -0.99126,-2.65122"
         id="path3891"
         style="fill:none;stroke:#000000;stroke-width:0.1400387;stroke-linecap:round;stroke-linejoin:round"
         inkscape:connector-curvature="0" />
      <path
         d="m 850.88261,200.06997 c -0.60328,1.04193 -0.17267,2.84152 -0.17267,2.84152 l 0.13004,0.047 c 0.64485,-1.46833 0.86016,-2.27298 0.0853,-2.84151 l -0.0427,-0.047"
         id="path3893"
         style="fill:#009900"
         inkscape:connector-curvature="0" />
      <path
         d="m 850.88261,200.06997 c -0.60328,1.04193 -0.17267,2.84152 -0.17267,2.84152 l 0.13004,0.047 c 0.64485,-1.46833 0.86016,-2.27298 0.0853,-2.84151"
         id="path3895"
         style="fill:none;stroke:#000000;stroke-width:0.1400387;stroke-linecap:round;stroke-linejoin:round"
         inkscape:connector-curvature="0" />
      <path
         d="m 849.07383,201.20705 c -0.30058,1.1359 0.51694,2.74637 0.51694,2.74637 l 0.12897,0.047 c 0.30165,-1.60928 0.30165,-2.46209 -0.55958,-2.79335 l -0.0863,0"
         id="path3897"
         style="fill:#009900"
         inkscape:connector-curvature="0" />
      <path
         d="m 849.07383,201.20705 c -0.30058,1.1359 0.51694,2.74637 0.51694,2.74637 l 0.12897,0.047 c 0.30165,-1.60928 0.30165,-2.46209 -0.55958,-2.79335"
         id="path3899"
         style="fill:none;stroke:#000000;stroke-width:0.1400387;stroke-linecap:round;stroke-linejoin:round"
         inkscape:connector-curvature="0" />
      <path
         d="m 851.4422,200.54336 c 0.77488,0.94678 0.60328,2.79454 0.60328,2.79454 l -0.0863,0.047 c -0.90385,-1.3262 -1.2055,-2.08385 -0.56065,-2.79336 l 0.0437,-0.0481"
         id="path3901"
         style="fill:#009900"
         inkscape:connector-curvature="0" />
      <path
         d="m 851.4422,200.54336 c 0.77488,0.94678 0.60328,2.79454 0.60328,2.79454 l -0.0863,0.047 c -0.90385,-1.3262 -1.2055,-2.08385 -0.56065,-2.79336"
         id="path3903"
         style="fill:none;stroke:#000000;stroke-width:0.1400387;stroke-linecap:round;stroke-linejoin:round"
         inkscape:connector-curvature="0" />
      <path
         d="m 852.86301,200.63851 c 0.51694,1.08892 -0.0427,2.84152 -0.0427,2.84152 l -0.13003,0.047 c -0.55851,-1.56231 -0.68855,-2.36813 0.13003,-2.8885 l 0.0427,0"
         id="path3905"
         style="fill:#009900"
         inkscape:connector-curvature="0" />
      <path
         d="m 852.86301,200.63851 c 0.51694,1.08892 -0.0427,2.84152 -0.0427,2.84152 l -0.13003,0.047 c -0.55851,-1.56231 -0.68855,-2.36813 0.13003,-2.8885"
         id="path3907"
         style="fill:none;stroke:#000000;stroke-width:0.1400387;stroke-linecap:round;stroke-linejoin:round"
         inkscape:connector-curvature="0" />
      <path
         d="m 852.38976,200.40123 c 0.51588,1.08891 -0.0863,2.84152 -0.0863,2.84152 l -0.12897,0.0481 c -0.51695,-1.51649 -0.64592,-2.36812 0.12897,-2.84269 l 0.0863,-0.047"
         id="path3909"
         style="fill:#009900"
         inkscape:connector-curvature="0" />
      <path
         d="m 852.38976,200.40123 c 0.51588,1.08891 -0.0863,2.84152 -0.0863,2.84152 l -0.12897,0.0481 c -0.51695,-1.51649 -0.64592,-2.36812 0.12897,-2.84269"
         id="path3911"
         style="fill:none;stroke:#000000;stroke-width:0.1400387;stroke-linecap:round;stroke-linejoin:round"
         inkscape:connector-curvature="0" />
      <path
         d="m 845.50102,207.17435 c 0.86122,0.80465 2.53997,0.61553 2.53997,0.61553 l 0.0427,-0.0952 c -1.20443,-0.94678 -1.89406,-1.3262 -2.53997,-0.61553 l -0.0427,0.0952"
         id="path3913"
         style="fill:#009900"
         inkscape:connector-curvature="0" />
      <path
         d="m 845.50102,207.17435 c 0.86122,0.80465 2.53997,0.61553 2.53997,0.61553 l 0.0427,-0.0952 c -1.20443,-0.94678 -1.89406,-1.3262 -2.53997,-0.61553"
         id="path3915"
         style="fill:none;stroke:#000000;stroke-width:0.1400387;stroke-linecap:round;stroke-linejoin:round"
         inkscape:connector-curvature="0" />
      <path
         d="m 846.49122,209.21005 c 1.24813,0.4264 2.49733,-0.56736 2.49733,-0.56736 l 0.0427,-0.14214 c -1.46344,-0.33243 -2.23833,-0.28427 -2.53997,0.66251 l 0,0.047"
         id="path3917"
         style="fill:#009900"
         inkscape:connector-curvature="0" />
      <path
         d="m 846.49122,209.21005 c 1.24813,0.4264 2.49733,-0.56736 2.49733,-0.56736 l 0.0427,-0.14214 c -1.46344,-0.33243 -2.23833,-0.28427 -2.53997,0.66251"
         id="path3919"
         style="fill:none;stroke:#000000;stroke-width:0.1400387;stroke-linecap:round;stroke-linejoin:round"
         inkscape:connector-curvature="0" />
      <path
         d="m 845.93163,208.35842 c 0.9902,0.52038 2.58261,-0.0951 2.58261,-0.0951 l 0.0437,-0.14214 c -1.37818,-0.56853 -2.15306,-0.71067 -2.58368,0.14214 l -0.0427,0.0951"
         id="path3921"
         style="fill:#009900"
         inkscape:connector-curvature="0" />
      <path
         d="m 845.93163,208.35842 c 0.9902,0.52038 2.58261,-0.0951 2.58261,-0.0951 l 0.0437,-0.14214 c -1.37818,-0.56853 -2.15306,-0.71067 -2.58368,0.14214"
         id="path3923"
         style="fill:none;stroke:#000000;stroke-width:0.1400387;stroke-linecap:round;stroke-linejoin:round"
         inkscape:connector-curvature="0" />
      <path
         d="m 845.97427,205.70602 c 1.07653,-0.37942 2.53997,0.56853 2.53997,0.56853 l 0,0.14214 c -1.46344,0.33126 -2.1957,0.28428 -2.53997,-0.66369 l 0,-0.047"
         id="path3925"
         style="fill:#009900"
         inkscape:connector-curvature="0" />
      <path
         d="m 845.97427,205.70602 c 1.07653,-0.37942 2.53997,0.56853 2.53997,0.56853 l 0,0.14214 c -1.46344,0.33126 -2.1957,0.28428 -2.53997,-0.66369"
         id="path3927"
         style="fill:none;stroke:#000000;stroke-width:0.1400387;stroke-linecap:round;stroke-linejoin:round"
         inkscape:connector-curvature="0" />
      <path
         d="m 846.14694,204.09555 c 0.47325,1.13591 2.06566,1.7526 2.06566,1.7526 l 0.0863,-0.0952 c -0.68856,-1.42017 -1.20551,-2.03687 -2.06567,-1.70443 l -0.0863,0.047"
         id="path3929"
         style="fill:#009900"
         inkscape:connector-curvature="0" />
      <path
         d="m 846.14694,204.09555 c 0.47325,1.13591 2.06566,1.7526 2.06566,1.7526 l 0.0863,-0.0952 c -0.68856,-1.42017 -1.20551,-2.03687 -2.06567,-1.70443"
         id="path3931"
         style="fill:none;stroke:#000000;stroke-width:0.1400387;stroke-linecap:round;stroke-linejoin:round"
         inkscape:connector-curvature="0" />
      <path
         d="m 846.31854,204.85321 c 0.43062,1.13708 2.0241,1.79959 2.0241,1.79959 l 0.12897,-0.094 c -0.73226,-1.42134 -1.24814,-2.08385 -2.10937,-1.70561 l -0.0437,0"
         id="path3933"
         style="fill:#009900"
         inkscape:connector-curvature="0" />
      <path
         d="m 846.31854,204.85321 c 0.43062,1.13708 2.0241,1.79959 2.0241,1.79959 l 0.12897,-0.094 c -0.73226,-1.42134 -1.24814,-2.08385 -2.10937,-1.70561"
         id="path3935"
         style="fill:none;stroke:#000000;stroke-width:0.1400387;stroke-linecap:round;stroke-linejoin:round"
         inkscape:connector-curvature="0" />
      <path
         d="m 846.10324,206.70097 c 0.77595,0.85163 2.4547,0.85163 2.4547,0.85163 l 0.0863,-0.094 c -1.16287,-1.09009 -1.80879,-1.46833 -2.49734,-0.8528 l -0.0437,0.0952"
         id="path3937"
         style="fill:#009900"
         inkscape:connector-curvature="0" />
      <path
         d="m 846.10324,206.70097 c 0.77595,0.85163 2.4547,0.85163 2.4547,0.85163 l 0.0863,-0.094 c -1.16287,-1.09009 -1.80879,-1.46833 -2.49734,-0.8528"
         id="path3939"
         style="fill:none;stroke:#000000;stroke-width:0.1400387;stroke-linecap:round;stroke-linejoin:round"
         inkscape:connector-curvature="0" />
      <path
         d="m 847.35244,204.09555 c 1.11917,0.047 2.28097,1.42135 2.28097,1.42135 l -0.0427,0.14213 c -1.46344,-0.1903 -2.1957,-0.47456 -2.23833,-1.46833 l 0,-0.0951"
         id="path3941"
         style="fill:#009900"
         inkscape:connector-curvature="0" />
      <path
         d="m 847.35244,204.09555 c 1.11917,0.047 2.28097,1.42135 2.28097,1.42135 l -0.0427,0.14213 c -1.46344,-0.1903 -2.1957,-0.47456 -2.23833,-1.46833"
         id="path3943"
         style="fill:none;stroke:#000000;stroke-width:0.1400387;stroke-linecap:round;stroke-linejoin:round"
         inkscape:connector-curvature="0" />
      <path
         d="m 848.16997,213.5199 c 1.11916,-0.094 2.19569,-1.51532 2.19569,-1.51532 l -0.0426,-0.14213 c -1.46451,0.23727 -2.1957,0.56853 -2.1957,1.56347 l 0.0427,0.094"
         id="path3945"
         style="fill:#009900"
         inkscape:connector-curvature="0" />
      <path
         d="m 848.16997,213.5199 c 1.11916,-0.094 2.19569,-1.51532 2.19569,-1.51532 l -0.0426,-0.14213 c -1.46451,0.23727 -2.1957,0.56853 -2.1957,1.56347"
         id="path3947"
         style="fill:none;stroke:#000000;stroke-width:0.1400387;stroke-linecap:round;stroke-linejoin:round"
         inkscape:connector-curvature="0" />
      <path
         d="m 848.68691,213.75718 c 1.11917,-0.047 2.1957,-1.46833 2.1957,-1.46833 l -0.0426,-0.14214 c -1.46451,0.23729 -2.1957,0.52156 -2.1957,1.56348 l 0.0426,0.047"
         id="path3949"
         style="fill:#009900"
         inkscape:connector-curvature="0" />
      <path
         d="m 848.68691,213.75718 c 1.11917,-0.047 2.1957,-1.46833 2.1957,-1.46833 l -0.0426,-0.14214 c -1.46451,0.23729 -2.1957,0.52156 -2.1957,1.56348"
         id="path3951"
         style="fill:none;stroke:#000000;stroke-width:0.1400387;stroke-linecap:round;stroke-linejoin:round"
         inkscape:connector-curvature="0" />
      <path
         d="m 849.41917,214.89426 c 1.03283,-0.37942 1.76509,-2.08386 1.76509,-2.08386 l -0.0863,-0.0951 c -1.33447,0.61552 -1.9804,1.13707 -1.72245,2.08386 l 0.0437,0.0951"
         id="path3953"
         style="fill:#009900"
         inkscape:connector-curvature="0" />
      <path
         d="m 849.41917,214.89426 c 1.03283,-0.37942 1.76509,-2.08386 1.76509,-2.08386 l -0.0863,-0.0951 c -1.33447,0.61552 -1.9804,1.13707 -1.72245,2.08386"
         id="path3955"
         style="fill:none;stroke:#000000;stroke-width:0.1400387;stroke-linecap:round;stroke-linejoin:round"
         inkscape:connector-curvature="0" />
      <path
         d="m 848.90222,214.56183 c 1.07653,-0.37825 1.76508,-2.08386 1.76508,-2.08386 l -0.0437,-0.094 c -1.3771,0.61552 -1.97932,1.1359 -1.76508,2.08385 l 0.0437,0.094"
         id="path3957"
         style="fill:#009900"
         inkscape:connector-curvature="0" />
      <path
         d="m 848.90222,214.56183 c 1.07653,-0.37825 1.76508,-2.08386 1.76508,-2.08386 l -0.0437,-0.094 c -1.3771,0.61552 -1.97932,1.1359 -1.76508,2.08385"
         id="path3959"
         style="fill:none;stroke:#000000;stroke-width:0.1400387;stroke-linecap:round;stroke-linejoin:round"
         inkscape:connector-curvature="0" />
      <path
         d="m 847.61038,212.8104 c 1.11917,0.14214 2.41101,-1.09009 2.41101,-1.09009 l 0,-0.14213 c -1.50715,0 -2.28204,0.14213 -2.41101,1.13707 l 0,0.0951"
         id="path3961"
         style="fill:#009900"
         inkscape:connector-curvature="0" />
      <path
         d="m 847.61038,212.8104 c 1.11917,0.14214 2.41101,-1.09009 2.41101,-1.09009 l 0,-0.14213 c -1.50715,0 -2.28204,0.14213 -2.41101,1.13707"
         id="path3963"
         style="fill:none;stroke:#000000;stroke-width:0.1400387;stroke-linecap:round;stroke-linejoin:round"
         inkscape:connector-curvature="0" />
      <path
         d="m 847.69672,211.10478 c 1.03283,0.42641 2.53997,-0.4264 2.53997,-0.4264 l 0.0427,-0.14213 c -1.46345,-0.4264 -2.23834,-0.4264 -2.58261,0.47338 l 0,0.0952"
         id="path3965"
         style="fill:#009900"
         inkscape:connector-curvature="0" />
      <path
         d="m 847.69672,211.10478 c 1.03283,0.42641 2.53997,-0.4264 2.53997,-0.4264 l 0.0427,-0.14213 c -1.46345,-0.4264 -2.23834,-0.4264 -2.58261,0.47338"
         id="path3967"
         style="fill:none;stroke:#000000;stroke-width:0.1400387;stroke-linecap:round;stroke-linejoin:round"
         inkscape:connector-curvature="0" />
      <path
         d="m 847.86832,211.81545 c 1.12023,0.094 2.36837,-1.13707 2.36837,-1.13707 l 0,-0.14213 c -1.50714,0.0481 -2.23833,0.23728 -2.36837,1.23222 l 0,0.0469"
         id="path3969"
         style="fill:#009900"
         inkscape:connector-curvature="0" />
      <path
         d="m 847.86832,211.81545 c 1.12023,0.094 2.36837,-1.13707 2.36837,-1.13707 l 0,-0.14213 c -1.50714,0.0481 -2.23833,0.23728 -2.36837,1.23222"
         id="path3971"
         style="fill:none;stroke:#000000;stroke-width:0.1400387;stroke-linecap:round;stroke-linejoin:round"
         inkscape:connector-curvature="0" />
      <path
         d="m 846.83549,210.6314 c 0.64592,-0.99495 2.36837,-1.18407 2.36837,-1.18407 l 0.0853,0.0952 c -0.99019,1.23105 -1.63505,1.70444 -2.40994,1.1359 l -0.0437,-0.047"
         id="path3973"
         style="fill:#009900"
         inkscape:connector-curvature="0" />
      <path
         d="m 846.83549,210.6314 c 0.64592,-0.99495 2.36837,-1.18407 2.36837,-1.18407 l 0.0853,0.0952 c -0.99019,1.23105 -1.63505,1.70444 -2.40994,1.1359"
         id="path3975"
         style="fill:none;stroke:#000000;stroke-width:0.1400387;stroke-linecap:round;stroke-linejoin:round"
         inkscape:connector-curvature="0" />
      <path
         d="m 859.19216,205.18447 c -0.38798,1.46833 -1.85142,1.98988 -1.85142,1.98988 l -0.12897,-0.047 c 0.60221,-1.5165 1.03283,-2.179 1.93669,-1.9429 l 0.0437,0"
         id="path3977"
         style="fill:#009900"
         inkscape:connector-curvature="0" />
      <path
         d="m 859.19216,205.18447 c -0.38798,1.46833 -1.85142,1.98988 -1.85142,1.98988 l -0.12897,-0.047 c 0.60221,-1.5165 1.03283,-2.179 1.93669,-1.9429"
         id="path3979"
         style="fill:none;stroke:#000000;stroke-width:0.1400387;stroke-linecap:round;stroke-linejoin:round"
         inkscape:connector-curvature="0" />
      <path
         d="m 846.70652,209.96771 c 1.07547,0.4264 2.58261,-0.42523 2.58261,-0.42523 l 0,-0.14214 c -1.42081,-0.4264 -2.1957,-0.4264 -2.58261,0.47339 l 0,0.094"
         id="path3981"
         style="fill:#009900"
         inkscape:connector-curvature="0" />
      <path
         d="m 846.70652,209.96771 c 1.07547,0.4264 2.58261,-0.42523 2.58261,-0.42523 l 0,-0.14214 c -1.42081,-0.4264 -2.1957,-0.4264 -2.58261,0.47339"
         id="path3983"
         style="fill:none;stroke:#000000;stroke-width:0.1400387;stroke-linecap:round;stroke-linejoin:round"
         inkscape:connector-curvature="0" />
      <path
         d="m 856.78116,213.23563 c -0.9902,-0.56736 -1.42081,-2.36813 -1.42081,-2.36813 l 0.0863,-0.14213 c 1.20551,0.94795 1.76509,1.51649 1.37711,2.46327 l -0.0427,0.047"
         id="path3985"
         style="fill:#009900"
         inkscape:connector-curvature="0" />
      <path
         d="m 856.78116,213.23563 c -0.9902,-0.56736 -1.42081,-2.36813 -1.42081,-2.36813 l 0.0863,-0.14213 c 1.20551,0.94795 1.76509,1.51649 1.37711,2.46327"
         id="path3987"
         style="fill:none;stroke:#000000;stroke-width:0.1400387;stroke-linecap:round;stroke-linejoin:round"
         inkscape:connector-curvature="0" />
      <path
         d="m 855.70463,213.89932 c -0.8186,-0.85282 -0.8186,-2.69939 -0.8186,-2.69939 l 0.13004,-0.0951 c 0.9465,1.23105 1.33447,1.98872 0.73119,2.74754 l -0.0427,0.047"
         id="path3989"
         style="fill:#009900"
         inkscape:connector-curvature="0" />
      <path
         d="m 855.70463,213.89932 c -0.8186,-0.85282 -0.8186,-2.69939 -0.8186,-2.69939 l 0.13004,-0.0951 c 0.9465,1.23105 1.33447,1.98872 0.73119,2.74754"
         id="path3991"
         style="fill:none;stroke:#000000;stroke-width:0.1400387;stroke-linecap:round;stroke-linejoin:round"
         inkscape:connector-curvature="0" />
      <path
         d="m 857.21177,212.00458 c -0.25901,-1.18406 -1.72245,-2.13085 -1.72245,-2.13085 l -0.12897,0.094 c 0.47325,1.51649 0.86122,2.27415 1.76508,2.08385 l 0.0863,-0.047"
         id="path3993"
         style="fill:#009900"
         inkscape:connector-curvature="0" />
      <path
         d="m 857.21177,212.00458 c -0.25901,-1.18406 -1.72245,-2.13085 -1.72245,-2.13085 l -0.12897,0.094 c 0.47325,1.51649 0.86122,2.27415 1.76508,2.08385"
         id="path3995"
         style="fill:none;stroke:#000000;stroke-width:0.1400387;stroke-linecap:round;stroke-linejoin:round"
         inkscape:connector-curvature="0" />
      <path
         d="m 857.38338,211.10478 c -1.07654,0.14214 -2.41102,-1.08891 -2.41102,-1.08891 l 0.0437,-0.14214 c 1.46345,0 2.23834,0.14214 2.36731,1.1359 l 0,0.0952"
         id="path3997"
         style="fill:#009900"
         inkscape:connector-curvature="0" />
      <path
         d="m 857.38338,211.10478 c -1.07654,0.14214 -2.41102,-1.08891 -2.41102,-1.08891 l 0.0437,-0.14214 c 1.46345,0 2.23834,0.14214 2.36731,1.1359"
         id="path3999"
         style="fill:none;stroke:#000000;stroke-width:0.1400387;stroke-linecap:round;stroke-linejoin:round"
         inkscape:connector-curvature="0" />
      <path
         d="m 855.53195,203.10061 c -1.07653,0.14214 -2.06673,1.70561 -2.06673,1.70561 l 0.0437,0.0951 c 1.46345,-0.37942 2.15307,-0.75883 2.06674,-1.7526 l -0.0437,-0.0482"
         id="path4001"
         style="fill:#009900"
         inkscape:connector-curvature="0" />
      <path
         d="m 855.53195,203.10061 c -1.07653,0.14214 -2.06673,1.70561 -2.06673,1.70561 l 0.0437,0.0951 c 1.46345,-0.37942 2.15307,-0.75883 2.06674,-1.7526"
         id="path4003"
         style="fill:none;stroke:#000000;stroke-width:0.1400387;stroke-linecap:round;stroke-linejoin:round"
         inkscape:connector-curvature="0" />
      <path
         d="m 853.72423,202.34295 c 0.0863,1.23105 -1.07653,2.60541 -1.07653,2.60541 l -0.12897,-0.047 c 0.0426,-1.61047 0.21531,-2.46328 1.11916,-2.55843 l 0.0863,0"
         id="path4005"
         style="fill:#009900"
         inkscape:connector-curvature="0" />
      <path
         d="m 853.72423,202.34295 c 0.0863,1.23105 -1.07653,2.60541 -1.07653,2.60541 l -0.12897,-0.047 c 0.0426,-1.61047 0.21531,-2.46328 1.11916,-2.55843"
         id="path4007"
         style="fill:none;stroke:#000000;stroke-width:0.1400387;stroke-linecap:round;stroke-linejoin:round"
         inkscape:connector-curvature="0" />
      <path
         d="m 853.59526,200.54336 c 0.34428,1.18407 -0.43062,2.79454 -0.43062,2.79454 l -0.12897,0.047 c -0.34534,-1.61046 -0.34534,-2.4621 0.47325,-2.84151 l 0.0863,0"
         id="path4009"
         style="fill:#009900"
         inkscape:connector-curvature="0" />
      <path
         d="m 853.59526,200.54336 c 0.34428,1.18407 -0.43062,2.79454 -0.43062,2.79454 l -0.12897,0.047 c -0.34534,-1.61046 -0.34534,-2.4621 0.47325,-2.84151"
         id="path4011"
         style="fill:none;stroke:#000000;stroke-width:0.1400387;stroke-linecap:round;stroke-linejoin:round"
         inkscape:connector-curvature="0" />
      <path
         d="m 849.11752,202.24898 c 1.03284,0.47339 1.59242,2.22599 1.59242,2.22599 l -0.0863,0.14096 c -1.29078,-0.80465 -1.85036,-1.37318 -1.54978,-2.31996 l 0.0437,-0.047"
         id="path4013"
         style="fill:#009900"
         inkscape:connector-curvature="0" />
      <path
         d="m 849.11752,202.24898 c 1.03284,0.47339 1.59242,2.22599 1.59242,2.22599 l -0.0863,0.14096 c -1.29078,-0.80465 -1.85036,-1.37318 -1.54978,-2.31996"
         id="path4015"
         style="fill:none;stroke:#000000;stroke-width:0.1400387;stroke-linecap:round;stroke-linejoin:round"
         inkscape:connector-curvature="0" />
      <path
         d="m 848.16997,210.77353 c 0.259,-1.18406 1.72245,-2.13084 1.72245,-2.13084 l 0.12897,0.094 c -0.47325,1.51533 -0.86123,2.27298 -1.76509,2.08387 l -0.0863,-0.047"
         id="path4017"
         style="fill:#009900"
         inkscape:connector-curvature="0" />
      <path
         d="m 848.16997,210.77353 c 0.259,-1.18406 1.72245,-2.13084 1.72245,-2.13084 l 0.12897,0.094 c -0.47325,1.51533 -0.86123,2.27298 -1.76509,2.08387"
         id="path4019"
         style="fill:none;stroke:#000000;stroke-width:0.1400387;stroke-linecap:round;stroke-linejoin:round"
         inkscape:connector-curvature="0" />
      <path
         d="m 850.02139,213.85232 c 0.25794,-1.23222 1.72244,-2.13201 1.72244,-2.13201 l 0.12898,0.0481 c -0.47432,1.5623 -0.90386,2.27298 -1.80773,2.08386 l -0.0437,0"
         id="path4021"
         style="fill:#009900"
         inkscape:connector-curvature="0" />
      <path
         d="m 850.02139,213.85232 c 0.25794,-1.23222 1.72244,-2.13201 1.72244,-2.13201 l 0.12898,0.0481 c -0.47432,1.5623 -0.90386,2.27298 -1.80773,2.08386"
         id="path4023"
         style="fill:none;stroke:#000000;stroke-width:0.1400387;stroke-linecap:round;stroke-linejoin:round"
         inkscape:connector-curvature="0" />
      <path
         d="m 853.59526,215.98317 c 0.9465,-1.42134 0.51588,-4.02558 0.51588,-4.02558 l -0.1716,-0.0951 c -1.07653,1.98987 -1.42081,3.12578 -0.43062,4.02557 l 0.0863,0.0951"
         id="path4025"
         style="fill:#009900"
         inkscape:connector-curvature="0" />
      <path
         d="m 853.59526,215.98317 c 0.9465,-1.42134 0.51588,-4.02558 0.51588,-4.02558 l -0.1716,-0.0951 c -1.07653,1.98987 -1.42081,3.12578 -0.43062,4.02557"
         id="path4027"
         style="fill:none;stroke:#000000;stroke-width:0.1400387;stroke-linecap:round;stroke-linejoin:round"
         inkscape:connector-curvature="0" />
      <path
         d="m 858.54624,208.64269 c -1.03283,0.42522 -2.53998,-0.33244 -2.53998,-0.33244 l -0.0437,-0.14213 c 1.42081,-0.47339 2.1957,-0.52038 2.58367,0.37942 l 0,0.0951"
         id="path4029"
         style="fill:#009900"
         inkscape:connector-curvature="0" />
      <path
         d="m 858.54624,208.64269 c -1.03283,0.42522 -2.53998,-0.33244 -2.53998,-0.33244 l -0.0437,-0.14213 c 1.42081,-0.47339 2.1957,-0.52038 2.58367,0.37942"
         id="path4031"
         style="fill:none;stroke:#000000;stroke-width:0.1400387;stroke-linecap:round;stroke-linejoin:round"
         inkscape:connector-curvature="0" />
      <path
         d="m 858.20196,205.70602 c -0.60328,1.04193 -2.28203,1.37318 -2.28203,1.37318 l -0.0863,-0.0951 c 0.94756,-1.27804 1.54978,-1.84658 2.32466,-1.32503 l 0.0437,0.047"
         id="path4033"
         style="fill:#009900"
         inkscape:connector-curvature="0" />
      <path
         d="m 858.20196,205.70602 c -0.60328,1.04193 -2.28203,1.37318 -2.28203,1.37318 l -0.0863,-0.0951 c 0.94756,-1.27804 1.54978,-1.84658 2.32466,-1.32503"
         id="path4035"
         style="fill:none;stroke:#000000;stroke-width:0.1400387;stroke-linecap:round;stroke-linejoin:round"
         inkscape:connector-curvature="0" />
      <path
         d="m 848.51424,204.04857 c 0.30164,1.18289 2.36837,1.08891 2.36837,1.08891 l 0.0863,-0.0952 c -1.0339,-1.18288 -1.67982,-1.65745 -2.41101,-1.08891 l -0.0437,0.0952"
         id="path4037"
         style="fill:#009900"
         inkscape:connector-curvature="0" />
      <path
         d="m 848.51424,204.04857 c 0.30164,1.18289 2.36837,1.08891 2.36837,1.08891 l 0.0863,-0.0952 c -1.0339,-1.18288 -1.67982,-1.65745 -2.41101,-1.08891"
         id="path4039"
         style="fill:none;stroke:#000000;stroke-width:0.1400387;stroke-linecap:round;stroke-linejoin:round"
         inkscape:connector-curvature="0" />
      <path
         d="m 850.02139,203.48003 c 0.0863,1.27803 2.15306,1.5623 2.15306,1.5623 l 0.0863,-0.094 c -0.81859,-1.37436 -1.37818,-1.9429 -2.19571,-1.51532 l -0.0437,0.047"
         id="path4041"
         style="fill:#009900"
         inkscape:connector-curvature="0" />
      <path
         d="m 850.02139,203.48003 c 0.0863,1.27803 2.15306,1.5623 2.15306,1.5623 l 0.0863,-0.094 c -0.81859,-1.37436 -1.37818,-1.9429 -2.19571,-1.51532"
         id="path4043"
         style="fill:none;stroke:#000000;stroke-width:0.1400387;stroke-linecap:round;stroke-linejoin:round"
         inkscape:connector-curvature="0" />
      <path
         d="m 847.86832,206.08544 c 0.56065,1.08891 2.58368,0.47338 2.58368,0.47338 l 0.0437,-0.14213 c -1.2492,-0.85281 -1.98146,-1.18523 -2.58368,-0.4264 l -0.0437,0.0952"
         id="path4045"
         style="fill:#009900"
         inkscape:connector-curvature="0" />
      <path
         d="m 847.86832,206.08544 c 0.56065,1.08891 2.58368,0.47338 2.58368,0.47338 l 0.0437,-0.14213 c -1.2492,-0.85281 -1.98146,-1.18523 -2.58368,-0.4264"
         id="path4047"
         style="fill:none;stroke:#000000;stroke-width:0.1400387;stroke-linecap:round;stroke-linejoin:round"
         inkscape:connector-curvature="0" />
      <path
         d="m 847.99836,207.5526 c 0.81752,0.8528 2.53997,-0.42523 2.53997,-0.42523 l 0.0427,-0.14331 c -1.46345,-0.37824 -2.23833,-0.42524 -2.58261,0.47456 l 0,0.094"
         id="path4049"
         style="fill:#009900"
         inkscape:connector-curvature="0" />
      <path
         d="m 847.99836,207.5526 c 0.81752,0.8528 2.53997,-0.42523 2.53997,-0.42523 l 0.0427,-0.14331 c -1.46345,-0.37824 -2.23833,-0.42524 -2.58261,0.47456"
         id="path4051"
         style="fill:none;stroke:#000000;stroke-width:0.1400387;stroke-linecap:round;stroke-linejoin:round"
         inkscape:connector-curvature="0" />
      <path
         d="m 848.47161,208.92695 c 1.07653,0.52038 2.32466,-1.27921 2.32466,-1.27921 l 0,-0.14214 c -1.50714,0.14214 -2.23833,0.33126 -2.32466,1.3262 l 0,0.0952"
         id="path4053"
         style="fill:#009900"
         inkscape:connector-curvature="0" />
      <path
         d="m 848.47161,208.92695 c 1.07653,0.52038 2.32466,-1.27921 2.32466,-1.27921 l 0,-0.14214 c -1.50714,0.14214 -2.23833,0.33126 -2.32466,1.3262"
         id="path4055"
         style="fill:none;stroke:#000000;stroke-width:0.1400387;stroke-linecap:round;stroke-linejoin:round"
         inkscape:connector-curvature="0" />
      <path
         d="m 849.67711,211.90943 c 1.11916,-0.23611 1.16287,-2.50909 1.16287,-2.50909 l -0.0863,-0.14213 c -1.12023,1.04193 -1.59348,1.70444 -1.12023,2.60424 l 0.0437,0.047"
         id="path4057"
         style="fill:#009900"
         inkscape:connector-curvature="0" />
      <path
         d="m 849.67711,211.90943 c 1.11916,-0.23611 1.16287,-2.50909 1.16287,-2.50909 l -0.0863,-0.14213 c -1.12023,1.04193 -1.59348,1.70444 -1.12023,2.60424"
         id="path4059"
         style="fill:none;stroke:#000000;stroke-width:0.1400387;stroke-linecap:round;stroke-linejoin:round"
         inkscape:connector-curvature="0" />
      <path
         d="m 850.10772,212.66827 c 1.11917,-0.28427 1.20551,-2.55842 1.20551,-2.55842 l -0.12897,-0.094 c -1.11918,1.04193 -1.59349,1.70444 -1.11918,2.55725 l 0.0427,0.0952"
         id="path4061"
         style="fill:#009900"
         inkscape:connector-curvature="0" />
      <path
         d="m 850.10772,212.66827 c 1.11917,-0.28427 1.20551,-2.55842 1.20551,-2.55842 l -0.12897,-0.094 c -1.11918,1.04193 -1.59349,1.70444 -1.11918,2.55725"
         id="path4063"
         style="fill:none;stroke:#000000;stroke-width:0.1400387;stroke-linecap:round;stroke-linejoin:round"
         inkscape:connector-curvature="0" />
      <path
         d="m 850.96895,212.66827 c 1.11916,-0.0952 1.46344,-2.36813 1.46344,-2.36813 l -0.0426,-0.0951 c -1.29184,0.85281 -1.80879,1.46833 -1.46451,2.36813 l 0.0437,0.0952"
         id="path4065"
         style="fill:#009900"
         inkscape:connector-curvature="0" />
      <path
         d="m 850.96895,212.66827 c 1.11916,-0.0952 1.46344,-2.36813 1.46344,-2.36813 l -0.0426,-0.0951 c -1.29184,0.85281 -1.80879,1.46833 -1.46451,2.36813"
         id="path4067"
         style="fill:none;stroke:#000000;stroke-width:0.1400387;stroke-linecap:round;stroke-linejoin:round"
         inkscape:connector-curvature="0" />
      <path
         d="m 851.57117,213.18864 c 1.16287,-0.0951 1.50714,-2.32114 1.50714,-2.32114 l -0.0863,-0.14213 c -1.24815,0.90097 -1.80772,1.46833 -1.46345,2.41628 l 0.0427,0.047"
         id="path4069"
         style="fill:#009900"
         inkscape:connector-curvature="0" />
      <path
         d="m 851.57117,213.18864 c 1.16287,-0.0951 1.50714,-2.32114 1.50714,-2.32114 l -0.0863,-0.14213 c -1.24815,0.90097 -1.80772,1.46833 -1.46345,2.41628"
         id="path4071"
         style="fill:none;stroke:#000000;stroke-width:0.1400387;stroke-linecap:round;stroke-linejoin:round"
         inkscape:connector-curvature="0" />
      <path
         d="m 852.56136,213.85232 c 1.07653,-0.52155 0.64592,-2.74754 0.64592,-2.74754 l -0.12897,-0.0952 c -0.86123,1.3262 -1.2055,2.08387 -0.55958,2.79454 l 0.0426,0.0481"
         id="path4073"
         style="fill:#009900"
         inkscape:connector-curvature="0" />
      <path
         d="m 852.56136,213.85232 c 1.07653,-0.52155 0.64592,-2.74754 0.64592,-2.74754 l -0.12897,-0.0952 c -0.86123,1.3262 -1.2055,2.08387 -0.55958,2.79454"
         id="path4075"
         style="fill:none;stroke:#000000;stroke-width:0.1400387;stroke-linecap:round;stroke-linejoin:round"
         inkscape:connector-curvature="0" />
      <path
         d="m 853.24992,213.71019 c 1.0339,-0.52155 0.64699,-2.74754 0.64699,-2.74754 l -0.13005,-0.0951 c -0.90385,1.3262 -1.2055,2.08504 -0.55958,2.79453 l 0.0427,0.0482"
         id="path4077"
         style="fill:#009900"
         inkscape:connector-curvature="0" />
      <path
         d="m 853.24992,213.71019 c 1.0339,-0.52155 0.64699,-2.74754 0.64699,-2.74754 l -0.13005,-0.0951 c -0.90385,1.3262 -1.2055,2.08504 -0.55958,2.79453"
         id="path4079"
         style="fill:none;stroke:#000000;stroke-width:0.1400387;stroke-linecap:round;stroke-linejoin:round"
         inkscape:connector-curvature="0" />
      <path
         d="m 854.37015,213.33077 c 0.90386,-0.8528 -0.0437,-2.8885 -0.0437,-2.8885 l -0.12897,-0.0482 c -0.55959,1.51532 -0.68856,2.36812 0.0863,2.88968 l 0.0863,0.047"
         id="path4081"
         style="fill:#009900"
         inkscape:connector-curvature="0" />
      <path
         d="m 854.37015,213.33077 c 0.90386,-0.8528 -0.0437,-2.8885 -0.0437,-2.8885 l -0.12897,-0.0482 c -0.55959,1.51532 -0.68856,2.36812 0.0863,2.88968"
         id="path4083"
         style="fill:none;stroke:#000000;stroke-width:0.1400387;stroke-linecap:round;stroke-linejoin:round"
         inkscape:connector-curvature="0" />
      <path
         d="m 855.31664,211.67332 c 0.64593,-1.04192 -0.77488,-2.74637 -0.77488,-2.74637 l -0.12897,0 c -0.12897,1.65745 -0.0863,2.4621 0.81752,2.74637 l 0.0863,0"
         id="path4085"
         style="fill:#009900"
         inkscape:connector-curvature="0" />
      <path
         d="m 855.31664,211.67332 c 0.64593,-1.04192 -0.77488,-2.74637 -0.77488,-2.74637 l -0.12897,0 c -0.12897,1.65745 -0.0863,2.4621 0.81752,2.74637"
         id="path4087"
         style="fill:none;stroke:#000000;stroke-width:0.1400387;stroke-linecap:round;stroke-linejoin:round"
         inkscape:connector-curvature="0" />
      <path
         d="m 857.29704,209.77858 c -0.43062,-1.18406 -2.49628,-0.80464 -2.49628,-0.80464 l -0.0437,0.094 c 1.12023,1.04194 1.80879,1.42134 2.49734,0.75767 l 0.0426,-0.047"
         id="path4089"
         style="fill:#009900"
         inkscape:connector-curvature="0" />
      <path
         d="m 857.29704,209.77858 c -0.43062,-1.18406 -2.49628,-0.80464 -2.49628,-0.80464 l -0.0437,0.094 c 1.12023,1.04194 1.80879,1.42134 2.49734,0.75767"
         id="path4091"
         style="fill:none;stroke:#000000;stroke-width:0.1400387;stroke-linecap:round;stroke-linejoin:round"
         inkscape:connector-curvature="0" />
      <path
         d="m 857.55604,207.45862 c -0.73225,-0.94795 -2.58368,0.047 -2.58368,0.047 l -0.0426,0.14213 c 1.37711,0.61553 2.15306,0.75766 2.58368,-0.0951 l 0.0426,-0.094"
         id="path4093"
         style="fill:#009900"
         inkscape:connector-curvature="0" />
      <path
         d="m 857.55604,207.45862 c -0.73225,-0.94795 -2.58368,0.047 -2.58368,0.047 l -0.0426,0.14213 c 1.37711,0.61553 2.15306,0.75766 2.58368,-0.0951"
         id="path4095"
         style="fill:none;stroke:#000000;stroke-width:0.1400387;stroke-linecap:round;stroke-linejoin:round"
         inkscape:connector-curvature="0" />
      <path
         d="m 856.99646,205.753 c -0.73226,-0.94678 -2.58367,0.0952 -2.58367,0.0952 l -0.0427,0.094 c 1.37712,0.61669 2.152,0.75884 2.58262,-0.094 l 0.0437,-0.0952"
         id="path4097"
         style="fill:#009900"
         inkscape:connector-curvature="0" />
      <path
         d="m 856.99646,205.753 c -0.73226,-0.94678 -2.58367,0.0952 -2.58367,0.0952 l -0.0427,0.094 c 1.37712,0.61669 2.152,0.75884 2.58262,-0.094"
         id="path4099"
         style="fill:none;stroke:#000000;stroke-width:0.1400387;stroke-linecap:round;stroke-linejoin:round"
         inkscape:connector-curvature="0" />
      <path
         d="m 855.91993,205.0905 c -0.9902,-0.56855 -2.41101,1.08891 -2.41101,1.08891 l 0.0427,0.14214 c 1.46451,0.047 2.2394,-0.14214 2.36837,-1.13708 l 0,-0.094"
         id="path4101"
         style="fill:#009900"
         inkscape:connector-curvature="0" />
      <path
         d="m 855.91993,205.0905 c -0.9902,-0.56855 -2.41101,1.08891 -2.41101,1.08891 l 0.0427,0.14214 c 1.46451,0.047 2.2394,-0.14214 2.36837,-1.13708"
         id="path4103"
         style="fill:none;stroke:#000000;stroke-width:0.1400387;stroke-linecap:round;stroke-linejoin:round"
         inkscape:connector-curvature="0" />
      <path
         d="m 854.49912,204.28468 c -1.11917,-0.18913 -1.85142,1.98987 -1.85142,1.98987 l 0.0427,0.094 c 1.37818,-0.56854 2.02409,-1.04193 1.85143,-2.0357 l -0.0427,-0.0481"
         id="path4105"
         style="fill:#009900"
         inkscape:connector-curvature="0" />
      <path
         d="m 854.49912,204.28468 c -1.11917,-0.18913 -1.85142,1.98987 -1.85142,1.98987 l 0.0427,0.094 c 1.37818,-0.56854 2.02409,-1.04193 1.85143,-2.0357"
         id="path4107"
         style="fill:none;stroke:#000000;stroke-width:0.1400387;stroke-linecap:round;stroke-linejoin:round"
         inkscape:connector-curvature="0" />
      <path
         d="m 851.35586,202.53208 c -0.47325,1.13707 1.16287,2.55842 1.16287,2.55842 l 0.12897,0 c -0.0863,-1.65746 -0.30165,-2.46328 -1.2055,-2.55842 l -0.0863,0"
         id="path4109"
         style="fill:#009900"
         inkscape:connector-curvature="0" />
      <path
         d="m 851.35586,202.53208 c -0.47325,1.13707 1.16287,2.55842 1.16287,2.55842 l 0.12897,0 c -0.0863,-1.65746 -0.30165,-2.46328 -1.2055,-2.55842"
         id="path4111"
         style="fill:none;stroke:#000000;stroke-width:0.1400387;stroke-linecap:round;stroke-linejoin:round"
         inkscape:connector-curvature="0" />
      <path
         d="m 849.16016,205.13748 c 0.34428,1.18407 2.41101,1.08892 2.41101,1.08892 l 0.0863,-0.094 c -1.03389,-1.18406 -1.67875,-1.65745 -2.411,-1.09009 l -0.0863,0.0952"
         id="path4113"
         style="fill:#009900"
         inkscape:connector-curvature="0" />
      <path
         d="m 849.16016,205.13748 c 0.34428,1.18407 2.41101,1.08892 2.41101,1.08892 l 0.0863,-0.094 c -1.03389,-1.18406 -1.67875,-1.65745 -2.411,-1.09009"
         id="path4115"
         style="fill:none;stroke:#000000;stroke-width:0.1400387;stroke-linecap:round;stroke-linejoin:round"
         inkscape:connector-curvature="0" />
      <path
         d="m 849.54814,206.46368 c 0.68855,1.04192 2.58368,0.14214 2.58368,0.14214 l 0.0427,-0.14214 c -1.33447,-0.71068 -2.10937,-0.8998 -2.58368,-0.047 l -0.0426,0.047"
         id="path4117"
         style="fill:#009900"
         inkscape:connector-curvature="0" />
      <path
         d="m 849.54814,206.46368 c 0.68855,1.04192 2.58368,0.14214 2.58368,0.14214 l 0.0427,-0.14214 c -1.33447,-0.71068 -2.10937,-0.8998 -2.58368,-0.047"
         id="path4119"
         style="fill:none;stroke:#000000;stroke-width:0.1400387;stroke-linecap:round;stroke-linejoin:round"
         inkscape:connector-curvature="0" />
      <path
         d="m 849.76345,207.5056 c 0.81752,0.8998 2.5826,-0.33125 2.5826,-0.33125 l 0,-0.14213 c -1.4208,-0.4734 -2.19569,-0.52155 -2.5826,0.37824 l 0,0.0951"
         id="path4121"
         style="fill:#009900"
         inkscape:connector-curvature="0" />
      <path
         d="m 849.76345,207.5056 c 0.81752,0.8998 2.5826,-0.33125 2.5826,-0.33125 l 0,-0.14213 c -1.4208,-0.4734 -2.19569,-0.52155 -2.5826,0.37824"
         id="path4123"
         style="fill:none;stroke:#000000;stroke-width:0.1400387;stroke-linecap:round;stroke-linejoin:round"
         inkscape:connector-curvature="0" />
      <path
         d="m 850.4957,209.82558 c 1.07547,0.4264 2.19463,-1.51533 2.19463,-1.51533 l -0.0427,-0.14213 c -1.46344,0.23728 -2.1957,0.56853 -2.1957,1.56348 l 0.0437,0.094"
         id="path4125"
         style="fill:#009900"
         inkscape:connector-curvature="0" />
      <path
         d="m 850.4957,209.82558 c 1.07547,0.4264 2.19463,-1.51533 2.19463,-1.51533 l -0.0427,-0.14213 c -1.46344,0.23728 -2.1957,0.56853 -2.1957,1.56348"
         id="path4127"
         style="fill:none;stroke:#000000;stroke-width:0.1400387;stroke-linecap:round;stroke-linejoin:round"
         inkscape:connector-curvature="0" />
      <path
         d="m 851.14055,210.8675 c 1.16287,0 1.63612,-2.22481 1.63612,-2.22481 l -0.0863,-0.14214 c -1.29184,0.80465 -1.89406,1.32503 -1.59241,2.27298 l 0.0427,0.094"
         id="path4129"
         style="fill:#009900"
         inkscape:connector-curvature="0" />
      <path
         d="m 851.14055,210.8675 c 1.16287,0 1.63612,-2.22481 1.63612,-2.22481 l -0.0863,-0.14214 c -1.29184,0.80465 -1.89406,1.32503 -1.59241,2.27298"
         id="path4131"
         style="fill:none;stroke:#000000;stroke-width:0.1400387;stroke-linecap:round;stroke-linejoin:round"
         inkscape:connector-curvature="0" />
      <path
         d="m 852.21708,211.24692 c 1.11917,-0.33125 1.03284,-2.60423 1.03284,-2.60423 l -0.12897,-0.0951 c -1.03284,1.13708 -1.46345,1.84657 -0.9465,2.65239 l 0.0426,0.047"
         id="path4133"
         style="fill:#009900"
         inkscape:connector-curvature="0" />
      <path
         d="m 852.21708,211.24692 c 1.11917,-0.33125 1.03284,-2.60423 1.03284,-2.60423 l -0.12897,-0.0951 c -1.03284,1.13708 -1.46345,1.84657 -0.9465,2.65239"
         id="path4135"
         style="fill:none;stroke:#000000;stroke-width:0.1400387;stroke-linecap:round;stroke-linejoin:round"
         inkscape:connector-curvature="0" />
      <path
         d="m 854.41279,210.82052 c 0.73225,-0.99494 -0.55959,-2.74637 -0.55959,-2.74637 l -0.12897,-0.0481 c -0.25901,1.61047 -0.25901,2.46327 0.64592,2.79453 l 0.0427,0"
         id="path4137"
         style="fill:#009900"
         inkscape:connector-curvature="0" />
      <path
         d="m 854.41279,210.82052 c 0.73225,-0.99494 -0.55959,-2.74637 -0.55959,-2.74637 l -0.12897,-0.0481 c -0.25901,1.61047 -0.25901,2.46327 0.64592,2.79453"
         id="path4139"
         style="fill:none;stroke:#000000;stroke-width:0.1400387;stroke-linecap:round;stroke-linejoin:round"
         inkscape:connector-curvature="0" />
      <path
         d="m 856.43688,209.16306 c -0.30165,-1.23105 -2.36837,-1.18406 -2.36837,-1.18406 l -0.0863,0.0951 c 0.99019,1.23105 1.63612,1.70443 2.36837,1.1359 l 0.0863,-0.047"
         id="path4141"
         style="fill:#009900"
         inkscape:connector-curvature="0" />
      <path
         d="m 856.43688,209.16306 c -0.30165,-1.23105 -2.36837,-1.18406 -2.36837,-1.18406 l -0.0863,0.0951 c 0.99019,1.23105 1.63612,1.70443 2.36837,1.1359"
         id="path4143"
         style="fill:none;stroke:#000000;stroke-width:0.1400387;stroke-linecap:round;stroke-linejoin:round"
         inkscape:connector-curvature="0" />
      <path
         d="m 855.53195,207.979 c -0.55959,-1.08892 -2.53997,-0.4264 -2.53997,-0.4264 l -0.0426,0.14213 c 1.24814,0.85281 1.98039,1.13707 2.58261,0.37942 l 0,-0.0951"
         id="path4145"
         style="fill:#009900"
         inkscape:connector-curvature="0" />
      <path
         d="m 855.53195,207.979 c -0.55959,-1.08892 -2.53997,-0.4264 -2.53997,-0.4264 l -0.0426,0.14213 c 1.24814,0.85281 1.98039,1.13707 2.58261,0.37942"
         id="path4147"
         style="fill:none;stroke:#000000;stroke-width:0.1400387;stroke-linecap:round;stroke-linejoin:round"
         inkscape:connector-curvature="0" />
      <path
         d="m 856.35054,206.70097 c -0.73225,-0.94797 -2.58368,0.14095 -2.58368,0.14095 l -0.0427,0.14214 c 1.42081,0.56854 2.15306,0.66368 2.62631,-0.18913 l 0,-0.094"
         id="path4149"
         style="fill:#009900"
         inkscape:connector-curvature="0" />
      <path
         d="m 856.35054,206.70097 c -0.73225,-0.94797 -2.58368,0.14095 -2.58368,0.14095 l -0.0427,0.14214 c 1.42081,0.56854 2.15306,0.66368 2.62631,-0.18913"
         id="path4151"
         style="fill:none;stroke:#000000;stroke-width:0.1400387;stroke-linecap:round;stroke-linejoin:round"
         inkscape:connector-curvature="0" />
      <path
         d="m 850.79627,204.37982 c -0.30057,1.23105 1.54978,2.32115 1.54978,2.32115 l 0.13005,-0.0482 c -0.34428,-1.61047 -0.68963,-2.36813 -1.59349,-2.27298 l -0.0863,0"
         id="path4153"
         style="fill:#009900"
         inkscape:connector-curvature="0" />
      <path
         d="m 850.79627,204.37982 c -0.30057,1.23105 1.54978,2.32115 1.54978,2.32115 l 0.13005,-0.0482 c -0.34428,-1.61047 -0.68963,-2.36813 -1.59349,-2.27298"
         id="path4155"
         style="fill:none;stroke:#000000;stroke-width:0.1400387;stroke-linecap:round;stroke-linejoin:round"
         inkscape:connector-curvature="0" />
      <path
         d="m 852.90564,204.23768 c -0.9902,0.61553 -0.38691,2.84152 -0.38691,2.84152 l 0.0863,0.0482 c 0.81751,-1.37437 1.07546,-2.179 0.38691,-2.84269 l -0.0863,-0.047"
         id="path4157"
         style="fill:#009900"
         inkscape:connector-curvature="0" />
      <path
         d="m 852.90564,204.23768 c -0.9902,0.61553 -0.38691,2.84152 -0.38691,2.84152 l 0.0863,0.0482 c 0.81751,-1.37437 1.07546,-2.179 0.38691,-2.84269"
         id="path4159"
         style="fill:none;stroke:#000000;stroke-width:0.1400387;stroke-linecap:round;stroke-linejoin:round"
         inkscape:connector-curvature="0" />
      <path
         d="m 855.0587,206.03728 c -1.03282,-0.56855 -2.32466,1.23105 -2.32466,1.23105 l 0.0426,0.14213 c 1.46451,-0.094 2.1957,-0.33126 2.32467,-1.32502 l -0.0427,-0.0481"
         id="path4161"
         style="fill:#009900"
         inkscape:connector-curvature="0" />
      <path
         d="m 855.0587,206.03728 c -1.03282,-0.56855 -2.32466,1.23105 -2.32466,1.23105 l 0.0426,0.14213 c 1.46451,-0.094 2.1957,-0.33126 2.32467,-1.32502"
         id="path4163"
         style="fill:none;stroke:#000000;stroke-width:0.1400387;stroke-linecap:round;stroke-linejoin:round"
         inkscape:connector-curvature="0" />
      <path
         d="m 853.42258,209.58947 c 0.68856,-0.99495 -0.68854,-2.69939 -0.68854,-2.69939 l -0.12897,0 c -0.17268,1.61047 -0.12897,2.4621 0.77488,2.69939 l 0.0427,0"
         id="path4165"
         style="fill:#009900"
         inkscape:connector-curvature="0" />
      <path
         d="m 853.42258,209.58947 c 0.68856,-0.99495 -0.68854,-2.69939 -0.68854,-2.69939 l -0.12897,0 c -0.17268,1.61047 -0.12897,2.4621 0.77488,2.69939"
         id="path4167"
         style="fill:none;stroke:#000000;stroke-width:0.1400387;stroke-linecap:round;stroke-linejoin:round"
         inkscape:connector-curvature="0" />
      <path
         d="m 849.41917,210.30014 c 1.1618,-0.0951 1.54978,-2.32114 1.54978,-2.32114 l -0.0863,-0.14214 c -1.16287,0.75766 -1.80878,1.51532 -1.50714,2.36813 l 0.0437,0.0951"
         id="path4169"
         style="fill:#009900"
         inkscape:connector-curvature="0" />
      <path
         d="m 849.41917,210.30014 c 1.1618,-0.0951 1.54978,-2.32114 1.54978,-2.32114 l -0.0863,-0.14214 c -1.16287,0.75766 -1.80878,1.51532 -1.50714,2.36813"
         id="path4171"
         style="fill:none;stroke:#000000;stroke-width:0.1400387;stroke-linecap:round;stroke-linejoin:round"
         inkscape:connector-curvature="0" />
      <path
         d="m 853.55156,211.24692 c 0.86123,-0.85281 -0.12898,-2.84152 -0.12898,-2.84152 l -0.12897,-0.047 c -0.51694,1.51532 -0.64591,2.36695 0.17161,2.84152 l 0.0863,0.047"
         id="path4173"
         style="fill:#009900"
         inkscape:connector-curvature="0" />
      <path
         d="m 853.55156,211.24692 c 0.86123,-0.85281 -0.12898,-2.84152 -0.12898,-2.84152 l -0.12897,-0.047 c -0.51694,1.51532 -0.64591,2.36695 0.17161,2.84152"
         id="path4175"
         style="fill:none;stroke:#000000;stroke-width:0.1400387;stroke-linecap:round;stroke-linejoin:round"
         inkscape:connector-curvature="0" />
      <path
         d="m 851.74383,209.35218 c 0.73227,0 1.29184,-0.66251 1.29184,-1.46833 0,-0.75648 -0.55957,-1.42017 -1.29184,-1.42017 -0.68854,0 -1.29183,0.66369 -1.29183,1.42017 0,0.80582 0.60329,1.46833 1.29183,1.46833 z"
         id="path4177"
         style="fill:#ffe500"
         inkscape:connector-curvature="0" />
      <path
         d="m 851.74383,209.35218 c 0.73227,0 1.29184,-0.66251 1.29184,-1.46833 0,-0.75648 -0.55957,-1.42017 -1.29184,-1.42017 -0.68854,0 -1.29183,0.66369 -1.29183,1.42017 0,0.80582 0.60329,1.46833 1.29183,1.46833 z"
         id="path4179"
         style="fill:none;stroke:#000000;stroke-width:0.28007627"
         inkscape:connector-curvature="0" />
      <path
         d="m 851.74383,208.21628 c 0.17161,0 0.30165,-0.14213 0.30165,-0.33243 0,-0.14096 -0.13004,-0.2831 -0.30165,-0.2831 -0.17266,0 -0.30163,0.14214 -0.30163,0.2831 0,0.1903 0.12897,0.33243 0.30163,0.33243 z"
         id="path4181"
         style="fill:#000000"
         inkscape:connector-curvature="0" />
    </g>
  </g>
</svg>
